<svg width="480" height="132" viewBox="0 0 480 132" fill="none" xmlns="http://www.w3.org/2000/svg">
<path d="M135.921 42.4404C140.248 42.4405 144.178 43.0269 147.708 44.2002C151.352 45.3735 154.541 47.0269 157.274 49.1602C159.393 50.7313 161.271 52.5279 162.911 54.5479V44.2002H190.072V129.16H162.398V119.032C160.71 120.875 158.775 122.545 156.591 124.04C153.63 126.067 150.327 127.667 146.683 128.84C143.038 130.013 139.166 130.6 135.066 130.6C127.436 130.6 120.603 128.733 114.567 125C108.645 121.16 103.919 115.934 100.389 109.32C96.8583 102.6 95.0928 95.0263 95.0928 86.5996C95.0928 77.9598 96.8583 70.333 100.389 63.7197C103.919 57.1065 108.759 51.9335 114.909 48.2002C121.059 44.3602 128.063 42.4404 135.921 42.4404ZM100.959 41.1602H64.5723V129.16H35.5322V41.1602H0V17.1602H100.959V41.1602ZM241.693 129.16H214.36V10.7598H241.693V129.16ZM293.404 74.3057L324.665 44.2002H360.71L318.843 80.9619L359.855 129.16H327.569L300.844 96.7666L293.404 103.3V129.16H266.071V10.7598H293.404V74.3057ZM401.875 129.16H374.543V44.2002H401.875V129.16ZM462.405 44.2002H480V66.5996H462.405V129.16H435.072V66.5996H419.015V44.2002H435.072V22.7598H462.405V44.2002ZM142.583 64.04C138.483 64.04 134.895 64.9999 131.82 66.9199C128.86 68.7332 126.526 71.3467 124.817 74.7598C123.109 78.0663 122.255 82.0131 122.255 86.5996C122.255 91.1862 123.109 95.1863 124.817 98.5996C126.526 101.906 128.859 104.467 131.82 106.28C134.895 108.094 138.483 109 142.583 109C146.797 109 150.441 108.093 153.516 106.28C156.59 104.467 158.982 101.906 160.69 98.5996C162.399 95.1863 163.253 91.1861 163.253 86.5996C163.253 82.0131 162.399 78.0663 160.69 74.7598C158.982 71.3465 156.59 68.7332 153.516 66.9199C150.441 65 146.797 64.0401 142.583 64.04ZM388.209 1C393.334 1.00003 397.32 2.1729 400.167 4.51953C403.014 6.75953 404.438 9.96013 404.438 14.1201C404.437 18.0666 402.957 21.2665 399.996 23.7197C397.149 26.173 393.22 27.4004 388.209 27.4004C383.084 27.4004 379.041 26.28 376.08 24.04C373.233 21.6934 371.81 18.3867 371.81 14.1201C371.81 10.2801 373.29 7.13302 376.251 4.67969C379.212 2.22647 383.198 1 388.209 1Z" fill="#242424"/>
</svg>
