<svg width="240" height="56" viewBox="0 0 240 56" fill="none" xmlns="http://www.w3.org/2000/svg">
<rect width="240" height="56" rx="8" fill="#242424"/>
<path fill-rule="evenodd" clip-rule="evenodd" d="M97.0457 20.9999C96.566 20.9999 96.1221 20.9124 95.7137 20.7374C95.3119 20.5624 94.9587 20.3194 94.654 20.0083C94.3559 19.6907 94.1226 19.3212 93.954 18.8999C93.792 18.4722 93.711 18.0055 93.711 17.5C93.711 16.9944 93.792 16.531 93.954 16.1097C94.1226 15.6819 94.3559 15.3125 94.654 15.0014C94.9587 14.6838 95.3119 14.4375 95.7137 14.2625C96.1221 14.0875 96.566 14 97.0457 14C97.5253 14 97.966 14.0875 98.3679 14.2625C98.7762 14.4375 99.1294 14.6838 99.4276 15.0014C99.7322 15.319 99.9655 15.6916 100.128 16.1194C100.296 16.5407 100.38 17.0009 100.38 17.5C100.38 17.999 100.296 18.4625 100.128 18.8902C99.9655 19.3115 99.7322 19.681 99.4276 19.9985C99.1294 20.3161 98.7762 20.5624 98.3679 20.7374C97.966 20.9124 97.5253 20.9999 97.0457 20.9999ZM97.0457 19.9791C97.3762 19.9791 97.6776 19.9175 97.9498 19.7944C98.2285 19.6712 98.4683 19.4995 98.6693 19.2791C98.8702 19.0523 99.0257 18.7898 99.1359 18.4916C99.2526 18.187 99.3109 17.8564 99.3109 17.5C99.3109 17.1435 99.2526 16.8162 99.1359 16.518C99.0257 16.2134 98.8702 15.9509 98.6693 15.7305C98.4683 15.5037 98.2285 15.3287 97.9498 15.2055C97.6776 15.0824 97.3762 15.0208 97.0457 15.0208C96.7151 15.0208 96.4105 15.0824 96.1318 15.2055C95.8596 15.3287 95.6198 15.5004 95.4124 15.7208C95.2114 15.9412 95.0559 16.2037 94.9457 16.5083C94.8355 16.8065 94.7804 17.137 94.7804 17.5C94.7804 17.8564 94.8355 18.187 94.9457 18.4916C95.0559 18.7962 95.2114 19.0587 95.4124 19.2791C95.6198 19.4995 95.8596 19.6712 96.1318 19.7944C96.4105 19.9175 96.7151 19.9791 97.0457 19.9791Z" fill="white"/>
<path d="M101.802 20.9028V14.0973H102.745L106.7 19.3928C106.694 19.3398 106.688 19.2858 106.682 19.2306C106.663 19.0362 106.644 18.832 106.624 18.6181C106.611 18.3977 106.598 18.1676 106.585 17.9278C106.579 17.6815 106.572 17.4255 106.566 17.1598C106.559 16.894 106.556 16.6186 106.556 16.3334V14.0973H107.606V20.9028H106.644L102.682 15.7091C102.704 15.9741 102.721 16.2081 102.735 16.4112C102.761 16.6834 102.781 16.9167 102.794 17.1112C102.813 17.2991 102.826 17.4547 102.833 17.5778C102.839 17.6945 102.842 17.7917 102.842 17.8695C102.849 17.9473 102.852 18.0153 102.852 18.0737V20.9028H101.802Z" fill="white"/>
<path d="M87.1637 15.1084V20.9028H88.2137V15.1084H90.1775V14.0973H85.2581V15.1084H87.1637Z" fill="white"/>
<path d="M82.0737 20.9028V14.0973H83.1237V20.9028H82.0737Z" fill="white"/>
<path d="M74.1945 15.1084V20.9028H75.2445V15.1084H77.2084V14.0973H72.289V15.1084H74.1945Z" fill="white"/>
<path d="M66.9296 20.9028V14.0973H71.217V15.1084H67.9796V16.907H70.6823V17.9181H67.9796V19.8917H71.217V20.9028H66.9296Z" fill="white"/>
<path d="M61.1486 20.7375C61.5764 20.9125 62.0365 21 62.5291 21C62.9569 21 63.3523 20.9287 63.7152 20.7861C64.0847 20.637 64.4055 20.4296 64.6777 20.1639C64.9564 19.8982 65.1735 19.5838 65.3291 19.2209C65.4847 18.8514 65.5624 18.4431 65.5624 17.9959C65.5624 17.9375 65.5592 17.8792 65.5527 17.8209C65.5527 17.7561 65.5495 17.6912 65.543 17.6264C65.5365 17.5551 65.5268 17.4838 65.5138 17.4125H62.5V18.4528H64.4347V18.5111C64.4347 18.7121 64.3861 18.9033 64.2888 19.0847C64.1916 19.2597 64.0555 19.4153 63.8805 19.5514C63.7055 19.6875 63.5046 19.7945 63.2777 19.8722C63.0509 19.9435 62.8111 19.9792 62.5583 19.9792C62.2213 19.9792 61.9004 19.9144 61.5958 19.7847C61.2977 19.6551 61.0319 19.4769 60.7986 19.25C60.5717 19.0232 60.3935 18.7607 60.2639 18.4625C60.1342 18.1579 60.0694 17.8371 60.0694 17.5C60.0694 17.15 60.131 16.8292 60.2542 16.5375C60.3773 16.2394 60.5491 15.9801 60.7694 15.7598C60.9963 15.5394 61.2555 15.3677 61.5472 15.2445C61.8453 15.1214 62.1694 15.0598 62.5194 15.0598C62.7333 15.0598 62.9472 15.0922 63.1611 15.157C63.375 15.2218 63.5824 15.3158 63.7833 15.439C63.9907 15.5621 64.1916 15.7177 64.3861 15.9056L65.0666 15.1959C64.8981 14.969 64.681 14.7681 64.4152 14.5931C64.1495 14.4181 63.8513 14.282 63.5208 14.1848C63.1967 14.0876 62.8629 14.039 62.5194 14.039C62.0268 14.039 61.5666 14.1265 61.1389 14.3015C60.7111 14.4765 60.3352 14.7228 60.0111 15.0403C59.6935 15.3515 59.444 15.7177 59.2625 16.1389C59.0875 16.5602 59 17.0139 59 17.5C59 17.9926 59.0875 18.4528 59.2625 18.8806C59.444 19.3019 59.6968 19.6713 60.0208 19.9889C60.3449 20.3065 60.7208 20.556 61.1486 20.7375Z" fill="white"/>
<path d="M148.515 30.2206L146.265 35.9503H146.197L143.85 30.2206H141.728L145.245 38.2301L143.235 42.6849H145.297L150.72 30.2206H148.515ZM132.616 25.4659H130.651V38.6801H132.616V25.4659ZM125.221 25.4659H120.496V38.6801H122.476V33.6779H125.229C125.783 33.6969 126.337 33.6055 126.856 33.4089C127.375 33.2124 127.85 32.9147 128.254 32.533C128.657 32.1514 128.98 31.6934 129.205 31.1857C129.43 30.678 129.552 30.1308 129.563 29.5757C129.552 29.0196 129.43 28.4713 129.205 27.9627C128.979 27.4541 128.655 26.9953 128.251 26.613C127.847 26.2307 127.371 25.9324 126.851 25.7354C126.331 25.5385 125.777 25.4469 125.221 25.4659ZM125.274 31.833H122.476V27.3333H125.281C125.878 27.3333 126.45 27.5703 126.872 27.9923C127.294 28.4142 127.531 28.9864 127.531 29.5832C127.531 30.1799 127.294 30.7521 126.872 31.174C126.45 31.596 125.878 31.833 125.281 31.833H125.274ZM137.46 29.9356C136.741 29.8943 136.024 30.0639 135.4 30.4236C134.775 30.7833 134.269 31.3174 133.943 31.9605L135.698 32.7105C135.872 32.3925 136.135 32.1323 136.455 31.9617C136.774 31.7912 137.137 31.7178 137.498 31.7505C137.746 31.7257 137.996 31.7501 138.234 31.8223C138.473 31.8945 138.694 32.0132 138.887 32.1714C139.079 32.3296 139.238 32.5242 139.355 32.7442C139.472 32.9641 139.544 33.205 139.568 33.4529V33.5879C138.939 33.2478 138.235 33.0699 137.52 33.0704C135.638 33.0704 133.718 34.1054 133.718 36.0703C133.718 37.8402 135.255 38.9801 136.995 38.9801C137.49 39.0115 137.985 38.9082 138.426 38.681C138.867 38.4539 139.238 38.1115 139.5 37.6902H139.575V38.7101H141.495V33.6254C141.495 31.278 139.74 29.9731 137.475 29.9731L137.46 29.9356ZM137.228 37.1802C136.583 37.1802 135.683 36.8502 135.683 36.0553C135.683 35.0353 136.8 34.6453 137.775 34.6453C138.404 34.6285 139.026 34.7814 139.575 35.0878C139.503 35.6613 139.225 36.1892 138.794 36.5738C138.362 36.9585 137.806 37.1739 137.228 37.1802ZM66.1171 38.9651C64.2509 38.9712 62.4575 38.2419 61.1253 36.935C59.7932 35.6281 59.0296 33.8489 59 31.983C59.0296 30.1171 59.7932 28.3379 61.1253 27.031C62.4575 25.7242 64.2509 24.9948 66.1171 25.0009C67.0063 24.9861 67.8895 25.149 68.715 25.4799C69.5405 25.8109 70.2916 26.3033 70.9243 26.9283L69.5669 28.2707C68.6462 27.3686 67.4061 26.8671 66.1171 26.8758C64.7705 26.8758 63.4791 27.4107 62.527 28.3629C61.5748 29.315 61.0399 30.6065 61.0399 31.953C61.0399 33.2996 61.5748 34.591 62.527 35.5431C63.4791 36.4953 64.7705 37.0302 66.1171 37.0302C66.7724 37.0571 67.426 36.9462 68.0358 36.7046C68.6455 36.463 69.1978 36.0962 69.6569 35.6278C70.2672 34.9697 70.635 34.1232 70.6993 33.2279H66.1171V31.3755H72.5667C72.637 31.769 72.6697 32.1683 72.6642 32.568C72.729 34.2281 72.133 35.8462 71.0068 37.0677C70.371 37.71 69.6068 38.2109 68.7643 38.5379C67.9217 38.8648 67.0197 39.0104 66.1171 38.9651ZM82.6386 34.4654C82.6632 35.0652 82.5663 35.6639 82.3537 36.2254C82.1412 36.7869 81.8173 37.2996 81.4015 37.7328C80.9858 38.1659 80.4868 38.5106 79.9345 38.746C79.3822 38.9815 78.788 39.1028 78.1876 39.1028C77.5872 39.1028 76.993 38.9815 76.4407 38.746C75.8884 38.5106 75.3894 38.1659 74.9737 37.7328C74.5579 37.2996 74.234 36.7869 74.0215 36.2254C73.8089 35.6639 73.712 35.0652 73.7366 34.4654C73.712 33.8655 73.8089 33.2668 74.0215 32.7053C74.234 32.1438 74.5579 31.6311 74.9737 31.1979C75.3894 30.7648 75.8884 30.4201 76.4407 30.1847C76.993 29.9492 77.5872 29.8279 78.1876 29.8279C78.788 29.8279 79.3822 29.9492 79.9345 30.1847C80.4868 30.4201 80.9858 30.7648 81.4015 31.1979C81.8173 31.6311 82.1412 32.1438 82.3537 32.7053C82.5663 33.2668 82.6632 33.8655 82.6386 34.4654ZM80.6887 34.4654C80.7218 34.117 80.6817 33.7655 80.5711 33.4335C80.4604 33.1015 80.2816 32.7963 80.0462 32.5374C79.8107 32.2785 79.5237 32.0717 79.2037 31.9302C78.8836 31.7886 78.5375 31.7155 78.1876 31.7155C77.8376 31.7155 77.4916 31.7886 77.1715 31.9302C76.8515 32.0717 76.5645 32.2785 76.329 32.5374C76.0936 32.7963 75.9148 33.1015 75.8041 33.4335C75.6935 33.7655 75.6534 34.117 75.6865 34.4654C75.6534 34.8137 75.6935 35.1652 75.8041 35.4972C75.9148 35.8292 76.0936 36.1344 76.329 36.3933C76.5645 36.6522 76.8515 36.859 77.1715 37.0005C77.4916 37.1421 77.8376 37.2152 78.1876 37.2152C78.5375 37.2152 78.8836 37.1421 79.2037 37.0005C79.5237 36.859 79.8107 36.6522 80.0462 36.3933C80.2816 36.1344 80.4604 35.8292 80.5711 35.4972C80.6817 35.1652 80.7218 34.8137 80.6887 34.4654ZM92.613 34.4654C92.613 35.6448 92.1444 36.776 91.3104 37.61C90.4764 38.444 89.3452 38.9126 88.1658 38.9126C86.9863 38.9126 85.8551 38.444 85.0211 37.61C84.1871 36.776 83.7185 35.6448 83.7185 34.4654C83.7185 33.2859 84.1871 32.1547 85.0211 31.3207C85.8551 30.4867 86.9863 30.0181 88.1658 30.0181C89.3452 30.0181 90.4764 30.4867 91.3104 31.3207C92.1444 32.1547 92.613 33.2859 92.613 34.4654ZM90.6706 34.4654C90.7037 34.117 90.6636 33.7655 90.553 33.4335C90.4423 33.1015 90.2635 32.7963 90.0281 32.5374C89.7926 32.2785 89.5056 32.0717 89.1856 31.9302C88.8655 31.7886 88.5194 31.7155 88.1695 31.7155C87.8195 31.7155 87.4735 31.7886 87.1534 31.9302C86.8334 32.0717 86.5464 32.2785 86.3109 32.5374C86.0755 32.7963 85.8967 33.1015 85.786 33.4335C85.6754 33.7655 85.6353 34.117 85.6684 34.4654C85.6353 34.8137 85.6754 35.1652 85.786 35.4972C85.8967 35.8292 86.0755 36.1344 86.3109 36.3933C86.5464 36.6522 86.8334 36.859 87.1534 37.0005C87.4735 37.1421 87.8195 37.2152 88.1695 37.2152C88.5194 37.2152 88.8655 37.1421 89.1856 37.0005C89.5056 36.859 89.7926 36.6522 90.0281 36.3933C90.2635 36.1344 90.4423 35.8292 90.553 35.4972C90.6636 35.1652 90.7037 34.8137 90.6706 34.4654ZM102.347 30.2431V38.3201C102.347 41.6349 100.375 42.9998 98.0502 42.9998C97.198 43.007 96.3627 42.7615 95.65 42.2944C94.9372 41.8272 94.3789 41.1593 94.0454 40.375L95.7478 39.625C95.9244 40.0829 96.232 40.4786 96.6321 40.7627C97.0322 41.0468 97.5072 41.2067 97.9977 41.2225C99.4976 41.2225 100.413 40.3 100.413 38.5826V37.9377H100.338C100.043 38.2659 99.6824 38.5274 99.2788 38.7046C98.8752 38.8818 98.4384 38.9706 97.9977 38.9651C96.8043 38.9651 95.6597 38.491 94.8159 37.6471C93.972 36.8033 93.4979 35.6588 93.4979 34.4654C93.4979 33.272 93.972 32.1274 94.8159 31.2836C95.6597 30.4397 96.8043 29.9656 97.9977 29.9656C98.4413 29.9559 98.882 30.0404 99.2905 30.2136C99.699 30.3869 100.066 30.6449 100.368 30.9706H100.443V30.2206H102.347V30.2431ZM100.6 34.4879C100.628 34.1484 100.587 33.807 100.48 33.4837C100.373 33.1604 100.202 32.8619 99.9774 32.6058C99.7528 32.3498 99.4791 32.1415 99.1726 31.9933C98.866 31.8451 98.5328 31.76 98.1927 31.743C97.8459 31.7545 97.5049 31.835 97.1897 31.9798C96.8744 32.1247 96.5912 32.3309 96.3565 32.5865C96.1219 32.842 95.9406 33.1418 95.8232 33.4683C95.7058 33.7948 95.6547 34.1414 95.6728 34.4879C95.6567 34.832 95.7095 35.1759 95.8281 35.4993C95.9467 35.8227 96.1287 36.1193 96.3634 36.3714C96.5981 36.6236 96.8808 36.8264 97.1949 36.9678C97.5091 37.1093 97.8483 37.1866 98.1927 37.1952C98.5307 37.1821 98.8627 37.1009 99.1686 36.9563C99.4745 36.8118 99.748 36.607 99.9729 36.3542C100.198 36.1013 100.369 35.8057 100.477 35.485C100.585 35.1643 100.627 34.8251 100.6 34.4879ZM105.82 25.4809V38.6876H103.84V25.4809H105.82ZM113.619 35.9503L115.164 36.9702C114.752 37.5858 114.194 38.0899 113.539 38.4379C112.885 38.7859 112.155 38.967 111.414 38.9651C110.825 38.9735 110.24 38.8623 109.695 38.6381C109.15 38.4139 108.656 38.0814 108.243 37.6607C107.83 37.24 107.506 36.7399 107.292 36.1907C107.078 35.6415 106.978 35.0545 106.997 34.4654C106.909 33.4525 107.197 32.4427 107.806 31.6286C108.415 30.8144 109.302 30.2528 110.299 30.0507C111.295 29.8487 112.331 30.0203 113.209 30.533C114.087 31.0456 114.745 31.8634 115.059 32.8305L115.262 33.3479L109.262 35.8303C109.449 36.2505 109.757 36.6051 110.148 36.8484C110.538 37.0916 110.992 37.2124 111.452 37.1952C111.889 37.1883 112.317 37.0705 112.696 36.8527C113.075 36.635 113.393 36.3244 113.619 35.9503ZM108.887 34.3304L112.922 32.6655C112.766 32.3598 112.523 32.1067 112.225 31.9374C111.926 31.7681 111.584 31.6901 111.242 31.713C110.914 31.7273 110.593 31.8068 110.297 31.9466C110 32.0865 109.735 32.2841 109.515 32.5277C109.296 32.7714 109.128 33.0563 109.02 33.3658C108.912 33.6753 108.867 34.0032 108.887 34.3304Z" fill="white"/>
<path d="M35.8508 27.3735L24.1051 39.6793C24.237 40.1467 24.474 40.5778 24.798 40.9397C25.1221 41.3015 25.5246 41.5844 25.9747 41.7668C26.4248 41.9492 26.9107 42.0263 27.3952 41.9922C27.8797 41.958 28.35 41.8136 28.7701 41.5698L41.9862 34.0428L35.8508 27.3735Z" fill="#EA4335"/>
<path d="M47.7278 25.2818L42.0125 22.0084L35.5795 27.6537L42.0388 34.0254L47.7103 30.787C48.2128 30.524 48.6336 30.1284 48.9273 29.6432C49.2209 29.1579 49.3762 28.6016 49.3762 28.0344C49.3762 27.4673 49.2209 26.9109 48.9273 26.4257C48.6336 25.9405 48.2128 25.5449 47.7103 25.2818H47.7278Z" fill="#FBBC04"/>
<path d="M24.105 16.3283C24.034 16.5908 23.9987 16.8616 24 17.1335V38.8744C24.0007 39.1462 24.036 39.4167 24.105 39.6796L36.2533 27.6889L24.105 16.3283Z" fill="#4285F4"/>
<path d="M35.9383 28.0038L42.0124 22.0085L28.8139 14.4464C28.3173 14.1556 27.7526 14.0016 27.1772 14.0001C26.4822 13.9987 25.8059 14.2246 25.2512 14.6433C24.6966 15.0621 24.2941 15.6507 24.1051 16.3194L35.9383 28.0038Z" fill="#34A853"/>
<path d="M211.099 22.2346L215.215 26.3498C216.126 27.261 216.126 28.7394 215.215 29.6506L211.099 33.7658L209.568 32.2346L213.683 28.1183C213.748 28.0533 213.748 27.9471 213.683 27.882L209.568 23.7658L211.099 22.2346Z" fill="white"/>
</svg>
