<svg width="144" height="40" viewBox="0 0 144 40" fill="none" xmlns="http://www.w3.org/2000/svg">
<rect width="144" height="40" rx="5.71429" fill="#242424"/>
<path fill-rule="evenodd" clip-rule="evenodd" d="M78.8898 14.2861C78.5472 14.2861 78.2301 14.2236 77.9384 14.0986C77.6514 13.9736 77.3991 13.8 77.1815 13.5778C76.9685 13.3509 76.8018 13.087 76.6815 12.7861C76.5657 12.4805 76.5079 12.1472 76.5079 11.7861C76.5079 11.425 76.5657 11.094 76.6815 10.7931C76.8018 10.4875 76.9685 10.2236 77.1815 10.0014C77.3991 9.77455 77.6514 9.59863 77.9384 9.47363C78.2301 9.34863 78.5472 9.28613 78.8898 9.28613C79.2324 9.28613 79.5472 9.34863 79.8342 9.47363C80.1259 9.59863 80.3782 9.77455 80.5911 10.0014C80.8087 10.2283 80.9754 10.4945 81.0911 10.8C81.2115 11.1009 81.2717 11.4296 81.2717 11.7861C81.2717 12.1426 81.2115 12.4736 81.0911 12.7791C80.9754 13.0801 80.8087 13.344 80.5911 13.5708C80.3782 13.7977 80.1259 13.9736 79.8342 14.0986C79.5472 14.2236 79.2324 14.2861 78.8898 14.2861ZM78.8898 13.5569C79.1259 13.5569 79.3412 13.5129 79.5356 13.425C79.7347 13.337 79.906 13.2143 80.0495 13.0569C80.193 12.8949 80.3041 12.7074 80.3828 12.4944C80.4661 12.2768 80.5078 12.0407 80.5078 11.7861C80.5078 11.5315 80.4661 11.2977 80.3828 11.0847C80.3041 10.8671 80.193 10.6796 80.0495 10.5222C79.906 10.3602 79.7347 10.2352 79.5356 10.1472C79.3412 10.0593 79.1259 10.0153 78.8898 10.0153C78.6537 10.0153 78.4361 10.0593 78.237 10.1472C78.0426 10.2352 77.8713 10.3579 77.7231 10.5153C77.5796 10.6727 77.4685 10.8602 77.3898 11.0778C77.3111 11.2907 77.2717 11.5268 77.2717 11.7861C77.2717 12.0407 77.3111 12.2768 77.3898 12.4944C77.4685 12.712 77.5796 12.8995 77.7231 13.0569C77.8713 13.2143 78.0426 13.337 78.237 13.425C78.4361 13.5129 78.6537 13.5569 78.8898 13.5569Z" fill="white"/>
<path d="M82.2871 14.2167V9.35564H82.9607L85.786 13.1381C85.7816 13.1003 85.7773 13.0617 85.7732 13.0223C85.7593 12.8834 85.7454 12.7376 85.7315 12.5848C85.7223 12.4274 85.713 12.263 85.7038 12.0917C85.6991 11.9158 85.6945 11.7329 85.6899 11.5431C85.6852 11.3533 85.6829 11.1566 85.6829 10.9528V9.35564H86.4329V14.2167H85.7454L82.9161 10.5069C82.9311 10.6962 82.9437 10.8634 82.9538 11.0084C82.9723 11.2028 82.9862 11.3695 82.9955 11.5084C83.0093 11.6427 83.0186 11.7538 83.0232 11.8417C83.0279 11.9251 83.0302 11.9945 83.0302 12.0501C83.0348 12.1056 83.0371 12.1542 83.0371 12.1959V14.2167H82.2871Z" fill="white"/>
<path d="M71.8312 10.0779V14.2167H72.5812V10.0779H73.984V9.35564H70.4701V10.0779H71.8312Z" fill="white"/>
<path d="M68.1955 14.2167V9.35564H68.9455V14.2167H68.1955Z" fill="white"/>
<path d="M62.5675 10.0779V14.2167H63.3175V10.0779H64.7203V9.35564H61.2064V10.0779H62.5675Z" fill="white"/>
<path d="M57.3783 14.2167V9.35564H60.4407V10.0779H58.1283V11.3626H60.0588V12.0848H58.1283V13.4945H60.4407V14.2167H57.3783Z" fill="white"/>
<path d="M53.249 14.0986C53.5546 14.2236 53.8833 14.2861 54.2351 14.2861C54.5407 14.2861 54.8231 14.2352 55.0823 14.1334C55.3462 14.0269 55.5754 13.8787 55.7698 13.6889C55.9689 13.4991 56.124 13.2746 56.2351 13.0153C56.3462 12.7514 56.4017 12.4598 56.4017 12.1403C56.4017 12.0987 56.3994 12.057 56.3948 12.0153C56.3948 11.969 56.3925 11.9227 56.3879 11.8764C56.3832 11.8255 56.3763 11.7746 56.367 11.7237H54.2143V12.4667H55.5962V12.5084C55.5962 12.6519 55.5615 12.7885 55.492 12.9181C55.4226 13.0431 55.3254 13.1542 55.2004 13.2514C55.0754 13.3486 54.9319 13.425 54.7698 13.4806C54.6078 13.5315 54.4365 13.557 54.2559 13.557C54.0152 13.557 53.786 13.5107 53.5684 13.4181C53.3555 13.3255 53.1657 13.1982 52.999 13.0361C52.837 12.8741 52.7097 12.6866 52.6171 12.4737C52.5245 12.2561 52.4782 12.0269 52.4782 11.7862C52.4782 11.5362 52.5222 11.307 52.6101 11.0987C52.6981 10.8857 52.8208 10.7005 52.9782 10.5431C53.1402 10.3857 53.3254 10.263 53.5337 10.1751C53.7467 10.0871 53.9782 10.0431 54.2282 10.0431C54.3809 10.0431 54.5337 10.0663 54.6865 10.1126C54.8393 10.1589 54.9874 10.226 55.1309 10.314C55.2791 10.4019 55.4226 10.513 55.5615 10.6473L56.0476 10.1403C55.9272 9.97831 55.7721 9.83479 55.5823 9.70979C55.3925 9.5848 55.1795 9.48757 54.9434 9.41813C54.7119 9.34869 54.4735 9.31397 54.2282 9.31397C53.8763 9.31397 53.5476 9.37646 53.2421 9.50146C52.9365 9.62646 52.668 9.80239 52.4365 10.0292C52.2097 10.2515 52.0314 10.513 51.9018 10.8139C51.7768 11.1149 51.7143 11.4389 51.7143 11.7862C51.7143 12.138 51.7768 12.4667 51.9018 12.7723C52.0314 13.0732 52.212 13.3371 52.4435 13.5639C52.6749 13.7908 52.9434 13.969 53.249 14.0986Z" fill="white"/>
<path d="M115.653 20.8716L114.046 24.9642H113.998L112.321 20.8716H110.805L113.318 26.5927L111.882 29.7746H113.355L117.228 20.8716H115.653ZM104.297 17.4754H102.893V26.9141H104.297V17.4754ZM99.015 17.4754H95.6402V26.9141H97.0544V23.3411H99.0204C99.4168 23.3546 99.8119 23.2893 100.183 23.149C100.554 23.0086 100.893 22.7959 101.181 22.5233C101.469 22.2507 101.7 21.9236 101.861 21.561C102.021 21.1983 102.108 20.8074 102.117 20.4109C102.108 20.0137 102.021 19.6221 101.86 19.2588C101.7 18.8955 101.468 18.5678 101.18 18.2947C100.891 18.0216 100.551 17.8086 100.179 17.6679C99.8079 17.5272 99.4121 17.4618 99.015 17.4754ZM99.0525 22.0233H97.0544V18.8092H99.0579C99.4841 18.8092 99.8929 18.9785 100.194 19.2799C100.496 19.5813 100.665 19.99 100.665 20.4163C100.665 20.8425 100.496 21.2512 100.194 21.5526C99.8929 21.854 99.4841 22.0233 99.0579 22.0233H99.0525ZM107.757 20.668C107.243 20.6385 106.732 20.7597 106.286 21.0166C105.839 21.2735 105.478 21.655 105.245 22.1144L106.499 22.6501C106.623 22.4229 106.811 22.2371 107.039 22.1152C107.267 21.9934 107.526 21.941 107.784 21.9644C107.961 21.9466 108.14 21.9641 108.31 22.0157C108.48 22.0673 108.639 22.152 108.776 22.265C108.914 22.378 109.027 22.517 109.111 22.6741C109.194 22.8312 109.246 23.0033 109.263 23.1804V23.2768C108.813 23.0339 108.311 22.9068 107.8 22.9072C106.456 22.9072 105.084 23.6464 105.084 25.0499C105.084 26.3141 106.182 27.1284 107.425 27.1284C107.779 27.1508 108.132 27.077 108.447 26.9147C108.762 26.7525 109.027 26.5079 109.214 26.207H109.268V26.9355H110.639V23.3036C110.639 21.6269 109.386 20.6948 107.768 20.6948L107.757 20.668ZM107.591 25.8427C107.131 25.8427 106.488 25.607 106.488 25.0392C106.488 24.3107 107.286 24.0321 107.982 24.0321C108.432 24.0201 108.876 24.1293 109.268 24.3482C109.216 24.7578 109.018 25.1349 108.71 25.4096C108.401 25.6844 108.004 25.8382 107.591 25.8427ZM56.7979 27.1176C55.4649 27.122 54.1839 26.6011 53.2324 25.6676C52.2808 24.7341 51.7354 23.4633 51.7143 22.1304C51.7354 20.7976 52.2808 19.5268 53.2324 18.5933C54.1839 17.6598 55.4649 17.1388 56.7979 17.1432C57.4331 17.1327 58.064 17.249 58.6536 17.4854C59.2432 17.7218 59.7797 18.0735 60.2316 18.5199L59.2621 19.4788C58.6044 18.8344 57.7186 18.4763 56.7979 18.4824C55.8361 18.4824 54.9137 18.8645 54.2335 19.5446C53.5534 20.2248 53.1714 21.1472 53.1714 22.109C53.1714 23.0708 53.5534 23.9933 54.2335 24.6734C54.9137 25.3535 55.8361 25.7356 56.7979 25.7356C57.266 25.7548 57.7329 25.6756 58.1684 25.503C58.604 25.3305 58.9984 25.0684 59.3263 24.7339C59.7623 24.2638 60.025 23.6591 60.0709 23.0197H56.7979V21.6965H61.4048C61.455 21.9776 61.4784 22.2628 61.4744 22.5483C61.5207 23.7341 61.095 24.8899 60.2906 25.7624C59.8364 26.2211 59.2906 26.579 58.6888 26.8125C58.087 27.046 57.4427 27.15 56.7979 27.1176ZM68.599 23.9035C68.6166 24.332 68.5474 24.7597 68.3955 25.1607C68.2437 25.5618 68.0123 25.928 67.7154 26.2374C67.4184 26.5468 67.062 26.793 66.6675 26.9612C66.273 27.1293 65.8486 27.216 65.4197 27.216C64.9909 27.216 64.5665 27.1293 64.172 26.9612C63.7775 26.793 63.421 26.5468 63.1241 26.2374C62.8271 25.928 62.5958 25.5618 62.4439 25.1607C62.2921 24.7597 62.2229 24.332 62.2405 23.9035C62.2229 23.4751 62.2921 23.0474 62.4439 22.6464C62.5958 22.2453 62.8271 21.8791 63.1241 21.5697C63.421 21.2603 63.7775 21.0141 64.172 20.8459C64.5665 20.6778 64.9909 20.5911 65.4197 20.5911C65.8486 20.5911 66.273 20.6778 66.6675 20.8459C67.062 21.0141 67.4184 21.2603 67.7154 21.5697C68.0123 21.8791 68.2437 22.2453 68.3955 22.6464C68.5474 23.0474 68.6166 23.4751 68.599 23.9035ZM67.2062 23.9035C67.2299 23.6547 67.2012 23.4037 67.1222 23.1665C67.0432 22.9294 66.9155 22.7114 66.7473 22.5265C66.5791 22.3415 66.3741 22.1938 66.1455 22.0927C65.9169 21.9916 65.6697 21.9394 65.4197 21.9394C65.1698 21.9394 64.9226 21.9916 64.6939 22.0927C64.4653 22.1938 64.2604 22.3415 64.0922 22.5265C63.924 22.7114 63.7963 22.9294 63.7172 23.1665C63.6382 23.4037 63.6096 23.6547 63.6332 23.9035C63.6096 24.1524 63.6382 24.4034 63.7172 24.6406C63.7963 24.8777 63.924 25.0957 64.0922 25.2806C64.2604 25.4656 64.4653 25.6133 64.6939 25.7144C64.9226 25.8155 65.1698 25.8677 65.4197 25.8677C65.6697 25.8677 65.9169 25.8155 66.1455 25.7144C66.3741 25.6133 66.5791 25.4656 66.7473 25.2806C66.9155 25.0957 67.0432 24.8777 67.1222 24.6406C67.2012 24.4034 67.2299 24.1524 67.2062 23.9035ZM75.7236 23.9035C75.7236 24.746 75.3889 25.554 74.7932 26.1497C74.1974 26.7455 73.3895 27.0801 72.547 27.0801C71.7045 27.0801 70.8965 26.7455 70.3008 26.1497C69.7051 25.554 69.3704 24.746 69.3704 23.9035C69.3704 23.0611 69.7051 22.2531 70.3008 21.6574C70.8965 21.0616 71.7045 20.727 72.547 20.727C73.3895 20.727 74.1974 21.0616 74.7932 21.6574C75.3889 22.2531 75.7236 23.0611 75.7236 23.9035ZM74.3362 23.9035C74.3598 23.6547 74.3312 23.4037 74.2521 23.1665C74.1731 22.9294 74.0454 22.7114 73.8772 22.5265C73.709 22.3415 73.504 22.1938 73.2754 22.0927C73.0468 21.9916 72.7996 21.9394 72.5497 21.9394C72.2997 21.9394 72.0525 21.9916 71.8239 22.0927C71.5953 22.1938 71.3903 22.3415 71.2221 22.5265C71.0539 22.7114 70.9262 22.9294 70.8472 23.1665C70.7681 23.4037 70.7395 23.6547 70.7632 23.9035C70.7395 24.1524 70.7681 24.4034 70.8472 24.6406C70.9262 24.8777 71.0539 25.0957 71.2221 25.2806C71.3903 25.4656 71.5953 25.6133 71.8239 25.7144C72.0525 25.8155 72.2997 25.8677 72.5497 25.8677C72.7996 25.8677 73.0468 25.8155 73.2754 25.7144C73.504 25.6133 73.709 25.4656 73.8772 25.2806C74.0454 25.0957 74.1731 24.8777 74.2521 24.6406C74.3312 24.4034 74.3598 24.1524 74.3362 23.9035ZM82.6767 20.8877V26.657C82.6767 29.0247 81.2679 29.9996 79.6073 29.9996C78.9986 30.0047 78.402 29.8294 77.8929 29.4957C77.3837 29.162 76.9849 28.6849 76.7467 28.1247L77.9627 27.589C78.0889 27.9161 78.3085 28.1987 78.5944 28.4016C78.8802 28.6046 79.2194 28.7188 79.5698 28.73C80.6411 28.73 81.2947 28.0712 81.2947 26.8444V26.3838H81.2411C81.031 26.6182 80.7731 26.805 80.4849 26.9316C80.1966 27.0582 79.8846 27.1216 79.5698 27.1176C78.7173 27.1176 77.8998 26.779 77.2971 26.1763C76.6943 25.5735 76.3557 24.756 76.3557 23.9035C76.3557 23.0511 76.6943 22.2336 77.2971 21.6308C77.8998 21.0281 78.7173 20.6895 79.5698 20.6895C79.8867 20.6825 80.2014 20.7429 80.4932 20.8666C80.785 20.9903 81.0473 21.1746 81.2625 21.4073H81.3161V20.8716H82.6767V20.8877ZM81.4286 23.9196C81.4483 23.6772 81.419 23.4333 81.3426 23.2023C81.2662 22.9714 81.1442 22.7582 80.9838 22.5753C80.8235 22.3925 80.628 22.2437 80.409 22.1378C80.19 22.0319 79.952 21.9711 79.709 21.959C79.4614 21.9672 79.2178 22.0247 78.9926 22.1282C78.7674 22.2316 78.5651 22.3789 78.3975 22.5615C78.2299 22.744 78.1004 22.9582 78.0166 23.1914C77.9327 23.4246 77.8962 23.6721 77.9092 23.9196C77.8977 24.1654 77.9354 24.411 78.0201 24.6421C78.1048 24.8731 78.2348 25.0849 78.4024 25.265C78.5701 25.4452 78.772 25.59 78.9964 25.691C79.2208 25.7921 79.4631 25.8473 79.709 25.8534C79.9505 25.8441 80.1876 25.786 80.4061 25.6828C80.6246 25.5796 80.82 25.4333 80.9806 25.2527C81.1412 25.0721 81.2637 24.8609 81.3406 24.6319C81.4176 24.4028 81.4475 24.1605 81.4286 23.9196ZM85.1569 17.4861V26.9194H83.7427V17.4861H85.1569ZM90.728 24.9642L91.8315 25.6927C91.5369 26.1324 91.1383 26.4925 90.671 26.7411C90.2038 26.9897 89.6824 27.119 89.1531 27.1176C88.7321 27.1237 88.3143 27.0442 87.9248 26.8841C87.5354 26.7239 87.1826 26.4864 86.8876 26.1859C86.5926 25.8855 86.3617 25.5283 86.2088 25.1359C86.0559 24.7436 85.9841 24.3244 85.998 23.9035C85.9352 23.1801 86.141 22.4588 86.5759 21.8773C87.0108 21.2957 87.6445 20.8946 88.3562 20.7502C89.0679 20.6059 89.8078 20.7285 90.4349 21.0947C91.062 21.4609 91.5325 22.045 91.7565 22.7358L91.9012 23.1054L87.6157 24.8785C87.7492 25.1786 87.9696 25.4319 88.2484 25.6057C88.5272 25.7795 88.8516 25.8657 89.1799 25.8534C89.4922 25.8485 89.798 25.7644 90.0688 25.6088C90.3396 25.4533 90.5665 25.2315 90.728 24.9642ZM87.3479 23.8071L90.2298 22.6179C90.1183 22.3996 89.9452 22.2188 89.7319 22.0979C89.5186 21.9769 89.2745 21.9212 89.0299 21.9376C88.796 21.9478 88.5665 22.0046 88.3548 22.1045C88.143 22.2044 87.9533 22.3455 87.7967 22.5195C87.6401 22.6936 87.5198 22.8971 87.4427 23.1182C87.3657 23.3392 87.3334 23.5734 87.3479 23.8071Z" fill="white"/>
<path d="M35.1791 18.8379L26.7893 27.6278C26.8835 27.9617 27.0528 28.2696 27.2843 28.528C27.5158 28.7865 27.8032 28.9885 28.1248 29.1188C28.4463 29.2491 28.7934 29.3042 29.1394 29.2798C29.4855 29.2554 29.8214 29.1522 30.1215 28.9781L39.5615 23.6017L35.1791 18.8379Z" fill="#EA4335"/>
<path d="M43.6627 17.344L39.5804 15.0059L34.9854 19.0382L39.5991 23.5894L43.6502 21.2763C44.0091 21.0884 44.3097 20.8058 44.5195 20.4592C44.7292 20.1127 44.8401 19.7153 44.8401 19.3101C44.8401 18.905 44.7292 18.5076 44.5195 18.1611C44.3097 17.8145 44.0091 17.5319 43.6502 17.344H43.6627Z" fill="#FBBC04"/>
<path d="M26.7893 10.9482C26.7386 11.1357 26.7134 11.3292 26.7143 11.5234V27.0526C26.7148 27.2467 26.74 27.44 26.7893 27.6277L35.4666 19.0629L26.7893 10.9482Z" fill="#4285F4"/>
<path d="M35.2416 19.2888L39.5803 15.0064L30.1527 9.60497C29.7981 9.39725 29.3947 9.28724 28.9837 9.28614C28.4873 9.28515 28.0042 9.44651 27.608 9.74561C27.2118 10.0447 26.9243 10.4651 26.7893 10.9428L35.2416 19.2888Z" fill="#34A853"/>
</svg>
