<svg width="144" height="40" viewBox="0 0 144 40" fill="none" xmlns="http://www.w3.org/2000/svg">
<rect width="144" height="40" rx="5.71429" fill="#242424"/>
<path d="M39.3803 15.6036C39.5492 15.6036 39.837 15.6305 40.2438 15.6842C40.6506 15.7379 41.0958 15.8915 41.5794 16.1447C42.0706 16.3904 42.5158 16.801 42.9149 17.3767C42.8919 17.3997 42.7806 17.4841 42.581 17.63C42.3814 17.7681 42.1589 17.9754 41.9132 18.2517C41.6676 18.5203 41.4527 18.8657 41.2685 19.2879C41.0843 19.7024 40.9922 20.1974 40.9922 20.7731C40.9922 21.4332 41.1073 21.9935 41.3376 22.454C41.5755 22.9146 41.848 23.2868 42.155 23.5708C42.4697 23.8472 42.746 24.0506 42.984 24.181C43.2296 24.3115 43.3601 24.3806 43.3754 24.3883C43.3678 24.419 43.268 24.6915 43.0761 25.2057C42.8919 25.72 42.5849 26.2918 42.155 26.9212C41.7789 27.4662 41.3721 27.9689 40.9346 28.4295C40.5048 28.89 39.9867 29.1202 39.3803 29.1202C38.9735 29.1202 38.6396 29.0627 38.3787 28.9475C38.1177 28.8247 37.849 28.7058 37.5727 28.5906C37.2964 28.4678 36.9241 28.4064 36.4559 28.4064C36.0031 28.4064 35.6231 28.4678 35.3161 28.5906C35.0168 28.7134 34.7289 28.8363 34.4526 28.9591C34.184 29.0819 33.8654 29.1433 33.497 29.1433C32.9367 29.1433 32.4455 28.9207 32.0233 28.4755C31.6012 28.0303 31.1675 27.4969 30.7223 26.8752C30.208 26.1383 29.7667 25.2403 29.3983 24.181C29.0375 23.1141 28.8571 22.0396 28.8571 20.9573C28.8571 19.7983 29.0759 18.8274 29.5134 18.0444C29.9509 17.2539 30.5112 16.659 31.1943 16.2599C31.8851 15.8531 32.599 15.6497 33.3358 15.6497C33.7273 15.6497 34.0957 15.7149 34.4411 15.8454C34.7865 15.9682 35.1089 16.0949 35.4082 16.2253C35.7152 16.3558 35.9916 16.4211 36.2372 16.4211C36.4751 16.4211 36.7514 16.352 37.0661 16.2138C37.3808 16.0757 37.7339 15.9413 38.1254 15.8109C38.5168 15.6727 38.9351 15.6036 39.3803 15.6036ZM38.7471 14.1414C38.4477 14.5022 38.0716 14.8054 37.6188 15.051C37.1659 15.2889 36.7361 15.4079 36.3293 15.4079C36.2449 15.4079 36.1643 15.4002 36.0875 15.3849C36.0798 15.3618 36.0722 15.3196 36.0645 15.2582C36.0568 15.1968 36.053 15.1316 36.053 15.0625C36.053 14.602 36.1527 14.1568 36.3523 13.727C36.5519 13.2894 36.7783 12.9287 37.0316 12.6447C37.354 12.2609 37.7608 11.9424 38.252 11.6891C38.7432 11.4358 39.2115 11.3015 39.6566 11.2861C39.6797 11.3859 39.6912 11.5049 39.6912 11.643C39.6912 12.1036 39.6029 12.5526 39.4264 12.9901C39.2498 13.4199 39.0234 13.8037 38.7471 14.1414Z" fill="white"/>
<path d="M66.3454 21.1465C66.9187 21.1465 67.4143 21.2914 67.8327 21.5801C68.2553 21.8688 68.582 22.2766 68.8122 22.8037C69.0424 23.331 69.1579 23.955 69.1579 24.6748V24.6875C69.1579 25.4157 69.0424 26.0456 68.8122 26.5771C68.5863 27.1044 68.2622 27.5103 67.8396 27.7949C67.4211 28.0795 66.9229 28.2217 66.3454 28.2217C66.0315 28.2217 65.7386 28.1734 65.4665 28.0771C65.1945 27.9767 64.9557 27.8371 64.7507 27.6572C64.5457 27.4773 64.3828 27.2635 64.2614 27.0166H64.154V30.3877H62.5974V21.2598H64.154V22.3398H64.2614C64.387 22.0887 64.5498 21.875 64.7507 21.6992C64.9557 21.5193 65.192 21.3831 65.4597 21.291C65.7275 21.1948 66.0232 21.1465 66.3454 21.1465ZM74.4568 21.1465C75.0299 21.1466 75.5256 21.2914 75.9441 21.5801C76.3667 21.8688 76.6934 22.2765 76.9236 22.8037C77.1537 23.331 77.2692 23.955 77.2693 24.6748V24.6875C77.2693 25.4157 77.1537 26.0456 76.9236 26.5771C76.6976 27.1043 76.3734 27.5103 75.9509 27.7949C75.5325 28.0795 75.0341 28.2216 74.4568 28.2217C74.143 28.2217 73.8498 28.1734 73.5779 28.0771C73.3059 27.9768 73.067 27.8371 72.862 27.6572C72.657 27.4773 72.4932 27.2635 72.3718 27.0166H72.2654V30.3877H70.7087V21.2598H72.2654V22.3398H72.3718C72.4974 22.0887 72.6611 21.875 72.862 21.6992C73.0671 21.5193 73.3033 21.3831 73.571 21.291C73.8389 21.1948 74.1345 21.1465 74.4568 21.1465ZM85.5114 18.8311C86.1811 18.8311 86.761 18.9422 87.2507 19.1641C87.7403 19.3859 88.1256 19.6892 88.406 20.0742C88.6862 20.4591 88.8432 20.8963 88.8767 21.3857L88.8825 21.4678H87.3386L87.3259 21.3926C87.2882 21.1541 87.19 20.9446 87.031 20.7646C86.8762 20.5848 86.6692 20.4425 86.4099 20.3379C86.1504 20.2333 85.8461 20.1823 85.4987 20.1865C85.1642 20.1866 84.8674 20.2376 84.6081 20.3379C84.3529 20.4383 84.1494 20.5823 83.9987 20.7705C83.8523 20.9547 83.779 21.177 83.779 21.4365V21.4424C83.779 21.7604 83.9024 22.0242 84.1491 22.2334C84.4003 22.4385 84.8087 22.5996 85.3737 22.7168L86.3464 22.9238C86.9826 23.0578 87.4996 23.2362 87.8972 23.458C88.2947 23.6798 88.5861 23.9555 88.7702 24.2861C88.9586 24.6126 89.0525 25.0064 89.0525 25.4668V25.4727C89.0525 26.0586 88.9076 26.5653 88.6189 26.9922C88.3343 27.419 87.9267 27.75 87.3952 27.9844C86.868 28.2145 86.2422 28.3291 85.5183 28.3291C84.8153 28.3291 84.2042 28.2222 83.6853 28.0088C83.1705 27.7912 82.7637 27.4879 82.4665 27.0986C82.1695 26.7095 82.0005 26.2551 81.9587 25.7363L81.9519 25.6484H83.528L83.5339 25.7119C83.5633 25.967 83.6659 26.1887 83.8415 26.377C84.0173 26.5653 84.2543 26.7118 84.5515 26.8164C84.8485 26.921 85.1874 26.9736 85.5681 26.9736C85.9321 26.9736 86.2545 26.9193 86.5349 26.8105C86.8152 26.6976 87.035 26.5423 87.1941 26.3457C87.353 26.1449 87.4323 25.9146 87.4323 25.6553V25.6484C87.4323 25.3221 87.3048 25.0566 87.0495 24.8516C86.7942 24.6423 86.3737 24.4752 85.7878 24.3496L84.8152 24.1484C83.8905 23.9518 83.2164 23.6379 82.7937 23.207C82.371 22.7718 82.1589 22.2168 82.1589 21.543V21.5371C82.1589 20.9972 82.302 20.5241 82.5866 20.1182C82.8754 19.7122 83.2709 19.3959 83.7732 19.1699C84.2794 18.9441 84.8588 18.8311 85.5114 18.8311ZM98.614 21.1221C99.2961 21.1221 99.8822 21.2643 100.372 21.5488C100.865 21.8334 101.247 22.2411 101.514 22.7725C101.782 23.304 101.916 23.9383 101.916 24.6748V24.6875C101.916 25.4241 101.782 26.0583 101.514 26.5898C101.251 27.1214 100.872 27.5315 100.378 27.8203C99.8881 28.1048 99.3002 28.247 98.614 28.2471C97.9318 28.2471 97.3432 28.1049 96.8493 27.8203C96.3598 27.5316 95.9814 27.1212 95.7136 26.5898C95.4499 26.0583 95.3181 25.4241 95.3181 24.6875V24.6748C95.3181 23.9426 95.4517 23.3107 95.7195 22.7793C95.9873 22.2478 96.3665 21.8393 96.8562 21.5547C97.35 21.266 97.9361 21.1221 98.614 21.1221ZM111.452 21.1221C112.101 21.1221 112.66 21.2659 113.129 21.5547C113.601 21.8393 113.965 22.2392 114.22 22.7539C114.476 23.2686 114.603 23.8711 114.603 24.5615V25.0771H109.81C109.817 25.4687 109.885 25.8077 110.02 26.0938C110.163 26.3951 110.364 26.6251 110.624 26.7842C110.887 26.9431 111.199 27.0224 111.558 27.0225C111.839 27.0225 112.08 26.9828 112.281 26.9033C112.482 26.8196 112.645 26.7213 112.77 26.6084C112.9 26.4912 112.988 26.3783 113.034 26.2695L113.052 26.2256H114.535L114.522 26.2881C114.468 26.5099 114.367 26.7366 114.22 26.9668C114.078 27.1927 113.883 27.404 113.636 27.6006C113.394 27.793 113.096 27.95 112.745 28.0713C112.393 28.1884 111.986 28.2471 111.521 28.2471C110.843 28.2471 110.259 28.1023 109.769 27.8135C109.284 27.5248 108.91 27.1169 108.646 26.5898C108.383 26.0583 108.251 25.4284 108.251 24.7002V24.6934C108.251 23.9737 108.38 23.3478 108.639 22.8164C108.903 22.2809 109.275 21.8645 109.757 21.5674C110.238 21.2702 110.803 21.1221 111.452 21.1221ZM92.7439 21.2607H94.1814V22.4658H92.7439V25.9316C92.7439 26.2704 92.8155 26.5171 92.9577 26.6719C93.1042 26.8266 93.3387 26.9043 93.6609 26.9043C93.7695 26.9043 93.8593 26.9026 93.9304 26.8984C94.0057 26.8901 94.0893 26.8814 94.1814 26.873V28.0781C94.0726 28.0949 93.9467 28.1095 93.8044 28.1221C93.6665 28.1388 93.5223 28.1475 93.3718 28.1475C92.5891 28.1475 92.0239 28.0027 91.6765 27.7139C91.3293 27.4251 91.156 26.9502 91.156 26.2891V22.4658H90.0945V21.2607H91.156V19.5713H92.7439V21.2607ZM58.0144 19.0518L61.2292 28.1104H59.5339L58.778 25.7686H55.4236L54.6687 28.1104H52.9734L56.1872 19.0518H58.0144ZM106.888 21.1465C107.005 21.1465 107.119 21.1535 107.227 21.166C107.34 21.1785 107.436 21.195 107.515 21.2158V22.6162C107.39 22.587 107.262 22.5653 107.133 22.5527C107.007 22.536 106.878 22.5283 106.744 22.5283C106.397 22.5283 106.093 22.593 105.834 22.7227C105.578 22.8524 105.379 23.0368 105.237 23.2754C105.095 23.5139 105.023 23.7984 105.023 24.1289V28.1094H103.467V21.2598H105.023V22.3145H105.131C105.248 21.9421 105.456 21.655 105.758 21.4541C106.063 21.249 106.441 21.1465 106.888 21.1465ZM98.614 22.3896C98.2541 22.3896 97.9481 22.4802 97.697 22.6602C97.446 22.8401 97.2511 23.1013 97.113 23.4443C96.9791 23.7833 96.9128 24.1936 96.9128 24.6748V24.6875C96.9128 25.173 96.9791 25.5875 97.113 25.9307C97.2469 26.2697 97.44 26.529 97.6911 26.709C97.9464 26.8889 98.2541 26.9785 98.614 26.9785C98.978 26.9785 99.2858 26.8889 99.5368 26.709C99.7879 26.5248 99.9801 26.2628 100.114 25.9238C100.248 25.5807 100.315 25.1687 100.315 24.6875V24.6748C100.315 24.1936 100.248 23.7833 100.114 23.4443C99.9801 23.1012 99.7853 22.8401 99.53 22.6602C99.2789 22.4802 98.9738 22.3897 98.614 22.3896ZM65.8552 22.459C65.5039 22.4591 65.1985 22.5487 64.9392 22.7285C64.6839 22.9085 64.4848 23.1645 64.3425 23.4951C64.2045 23.8215 64.1355 24.2147 64.1355 24.6748V24.6875C64.1355 25.1437 64.2044 25.5392 64.3425 25.874C64.4848 26.2046 64.6839 26.4597 64.9392 26.6396C65.1986 26.8154 65.5038 26.9033 65.8552 26.9033C66.2109 26.9033 66.5169 26.8154 66.7722 26.6396C67.0274 26.4597 67.2239 26.2046 67.362 25.874C67.5001 25.5434 67.5691 25.1479 67.5691 24.6875V24.6748C67.569 24.2145 67.5001 23.8189 67.362 23.4883C67.2239 23.1578 67.0274 22.9043 66.7722 22.7285C66.5169 22.5486 66.2109 22.459 65.8552 22.459ZM73.9665 22.459C73.6152 22.459 73.3099 22.5488 73.0505 22.7285C72.7952 22.9085 72.5961 23.1645 72.4538 23.4951C72.3158 23.8215 72.2468 24.2146 72.2468 24.6748V24.6875C72.2468 25.1437 72.3157 25.5392 72.4538 25.874C72.5961 26.2046 72.7952 26.4597 73.0505 26.6396C73.3099 26.8153 73.6151 26.9033 73.9665 26.9033C74.3223 26.9033 74.6282 26.8154 74.8835 26.6396C75.1387 26.4597 75.3353 26.2045 75.4734 25.874C75.6115 25.5434 75.6804 25.1479 75.6804 24.6875V24.6748C75.6804 24.2145 75.6115 23.8189 75.4734 23.4883C75.3353 23.1577 75.1388 22.9043 74.8835 22.7285C74.6282 22.5485 74.3223 22.459 73.9665 22.459ZM57.0476 20.7334L55.8269 24.5195H58.3757L57.154 20.7334H57.0476ZM111.47 22.3457C111.148 22.3458 110.862 22.4252 110.611 22.584C110.364 22.7388 110.167 22.9699 110.02 23.2754C109.919 23.4909 109.856 23.7421 109.827 24.0283H113.08C113.052 23.7281 112.99 23.4687 112.889 23.25C112.751 22.9488 112.559 22.7229 112.312 22.5723C112.069 22.4216 111.789 22.3457 111.47 22.3457ZM59.8396 11.4258C60.1976 11.4258 60.5063 11.5034 60.7644 11.6592C61.0225 11.815 61.2215 12.0385 61.3611 12.3291C61.5028 12.6196 61.5729 12.9661 61.573 13.3682V13.375C61.573 13.7748 61.5028 14.1205 61.3611 14.4111C61.2216 14.7017 61.0223 14.9259 60.7644 15.084C60.5063 15.2398 60.1976 15.3184 59.8396 15.3184C59.484 15.3183 59.1761 15.2397 58.9157 15.084C58.6577 14.9259 58.4579 14.7017 58.3161 14.4111C58.1766 14.1205 58.1062 13.7749 58.1062 13.375V13.3682C58.1062 12.966 58.1767 12.6197 58.3161 12.3291C58.458 12.0385 58.6577 11.8149 58.9157 11.6592C59.176 11.5035 59.4841 11.4258 59.8396 11.4258ZM75.4304 11.4258C75.7882 11.4258 76.0962 11.5035 76.3542 11.6592C76.6123 11.815 76.8114 12.0385 76.9509 12.3291C77.0927 12.6197 77.1638 12.9661 77.1638 13.3682V13.375C77.1638 13.7748 77.0927 14.1205 76.9509 14.4111C76.8114 14.7017 76.6123 14.9259 76.3542 15.084C76.0962 15.2397 75.7883 15.3183 75.4304 15.3184C75.0746 15.3184 74.766 15.2398 74.5056 15.084C74.2477 14.9259 74.0477 14.7016 73.906 14.4111C73.7665 14.1205 73.697 13.7749 73.697 13.375V13.3682C73.697 12.966 73.7665 12.6197 73.906 12.3291C74.0478 12.0385 74.2475 11.815 74.5056 11.6592C74.766 11.5034 75.0746 11.4258 75.4304 11.4258ZM79.5075 11.4258C79.8143 11.4258 80.0734 11.4762 80.2849 11.5762C80.4987 11.6761 80.661 11.8196 80.7702 12.0078C80.8818 12.1938 80.9372 12.4174 80.9372 12.6777V15.252H80.3308V14.6973H80.2741C80.1952 14.8296 80.0989 14.9422 79.9851 15.0352C79.8736 15.1281 79.7469 15.1992 79.6052 15.248C79.4634 15.2945 79.3072 15.3184 79.1374 15.3184C78.9003 15.3183 78.6864 15.2723 78.4958 15.1816C78.3076 15.091 78.1572 14.9623 78.0456 14.7949C77.9364 14.6276 77.8816 14.4299 77.8816 14.2021V14.1953C77.8816 13.9721 77.9357 13.7812 78.0427 13.623C78.1496 13.4627 78.305 13.3367 78.5095 13.2461C78.7141 13.1554 78.962 13.1022 79.2527 13.0859L80.3308 13.0195V12.6777C80.3308 12.4453 80.2597 12.2683 80.1179 12.1475C79.9784 12.0242 79.7674 11.9629 79.4861 11.9629C79.2606 11.9629 79.0755 12.0036 78.9314 12.085C78.7875 12.1639 78.6911 12.2767 78.6423 12.4229L78.6384 12.4336H78.032L78.0359 12.4131C78.0684 12.2154 78.1498 12.043 78.28 11.8965C78.4125 11.7478 78.5836 11.6331 78.7927 11.5518C79.0019 11.4681 79.2402 11.4258 79.5075 11.4258ZM85.2693 15.2529H84.6618V14.6523H84.6062C84.5295 14.7918 84.4333 14.9118 84.3171 15.0117C84.201 15.1093 84.0683 15.1848 83.9196 15.2383C83.7708 15.2918 83.6087 15.3184 83.4343 15.3184C83.1181 15.3183 82.8414 15.2385 82.6042 15.0781C82.3671 14.9177 82.1836 14.692 82.0534 14.4014C81.9232 14.1084 81.8581 13.7666 81.8581 13.376V13.3691C81.8581 12.9762 81.9232 12.6344 82.0534 12.3438C82.1836 12.0531 82.3665 11.8274 82.6013 11.667C82.8383 11.5067 83.116 11.4268 83.4343 11.4268C83.6064 11.4268 83.7685 11.454 83.9196 11.5098C84.073 11.5632 84.2084 11.6397 84.3269 11.7373C84.4455 11.835 84.5387 11.9511 84.6062 12.0859H84.6618V10H85.2693V15.2529ZM89.988 11.4258C90.3459 11.4258 90.6538 11.5035 90.9118 11.6592C91.1699 11.815 91.369 12.0385 91.5085 12.3291C91.6503 12.6197 91.7214 12.966 91.7214 13.3682V13.375C91.7214 13.7749 91.6503 14.1205 91.5085 14.4111C91.369 14.7018 91.1699 14.9259 90.9118 15.084C90.6538 15.2397 90.346 15.3183 89.988 15.3184C89.6323 15.3184 89.3236 15.2398 89.0632 15.084C88.8053 14.9259 88.6053 14.7016 88.4636 14.4111C88.3241 14.1205 88.2546 13.7749 88.2546 13.375V13.3682C88.2546 12.9661 88.3241 12.6197 88.4636 12.3291C88.6054 12.0385 88.8052 11.815 89.0632 11.6592C89.3236 11.5034 89.6323 11.4258 89.988 11.4258ZM107.14 11.4258C107.482 11.4258 107.775 11.505 108.019 11.6631C108.266 11.8212 108.454 12.0416 108.585 12.3252C108.717 12.6065 108.783 12.9352 108.783 13.3096V13.5459H106.079C106.083 13.7955 106.127 14.0107 106.213 14.1914C106.303 14.3797 106.433 14.5256 106.6 14.6279C106.768 14.7277 106.965 14.7773 107.193 14.7773C107.363 14.7773 107.51 14.7544 107.635 14.708C107.761 14.6616 107.865 14.6022 107.946 14.5303C108.027 14.4583 108.084 14.3848 108.117 14.3105L108.131 14.2783H108.738L108.731 14.3066C108.699 14.4345 108.64 14.5588 108.556 14.6797C108.475 14.7983 108.369 14.9063 108.239 15.0039C108.109 15.0992 107.954 15.1762 107.775 15.2344C107.598 15.2902 107.399 15.3184 107.178 15.3184C106.821 15.3183 106.513 15.2391 106.255 15.0811C105.999 14.9229 105.801 14.6995 105.662 14.4111C105.525 14.1205 105.456 13.7787 105.456 13.3857V13.3828C105.456 12.9945 105.525 12.6533 105.662 12.3604C105.801 12.0676 105.998 11.8389 106.251 11.6738C106.504 11.5088 106.801 11.4258 107.14 11.4258ZM99.7077 11.4922H100.531V11.9941H99.7077V14.1221C99.7078 14.3428 99.75 14.502 99.8337 14.5996C99.9174 14.6949 100.057 14.7422 100.253 14.7422C100.306 14.7422 100.351 14.7416 100.388 14.7393C100.428 14.7369 100.475 14.7331 100.531 14.7285V15.2451C100.473 15.2544 100.415 15.2626 100.357 15.2695C100.299 15.2765 100.24 15.2793 100.179 15.2793C99.7934 15.2793 99.513 15.2017 99.3386 15.0459C99.1666 14.8901 99.0808 14.6334 99.0808 14.2754V11.9941H98.487V11.4922H99.0808V10.5186H99.7077V11.4922ZM54.9079 10.2207C55.4055 10.2207 55.8318 10.3205 56.1853 10.5205C56.5407 10.7181 56.8124 11.0039 57.0007 11.3779C57.189 11.7522 57.2839 12.2037 57.2839 12.7314V12.7383C57.2839 13.2661 57.189 13.719 57.0007 14.0957C56.8124 14.4698 56.5415 14.7571 56.1882 14.957C55.8348 15.1546 55.4077 15.2529 54.9079 15.2529H53.1823V10.2207H54.9079ZM63.3943 14.499H63.4499L64.2907 11.4932H64.8659L65.7068 14.499H65.7624L66.5017 11.4932H67.1052L66.0515 15.2529H65.4411L64.6003 12.3438H64.5446L63.7077 15.2529H63.1013L62.0476 11.4932H62.655L63.3943 14.499ZM72.7204 15.2529H72.113V10H72.7204V15.2529ZM102.08 12.0576H102.135C102.231 11.8577 102.369 11.703 102.548 11.5938C102.727 11.4823 102.955 11.4268 103.231 11.4268C103.512 11.4268 103.751 11.4816 103.946 11.5908C104.141 11.6978 104.29 11.8547 104.392 12.0615C104.495 12.2684 104.546 12.5209 104.546 12.8184V15.2529H103.939V12.9648C103.939 12.6254 103.867 12.3737 103.722 12.2109C103.581 12.0461 103.36 11.9639 103.06 11.9639C102.86 11.9639 102.686 12.0067 102.54 12.0928C102.393 12.1788 102.279 12.301 102.198 12.459C102.119 12.617 102.08 12.8066 102.08 13.0273V15.2529H101.473V10H102.08V12.0576ZM69.6648 11.4258C70.0879 11.4258 70.4129 11.5463 70.6384 11.7881C70.8663 12.0276 70.9802 12.371 70.9802 12.8174V15.252H70.3728V12.9639C70.3728 12.6247 70.3009 12.3737 70.157 12.2109C70.0151 12.0459 69.7938 11.9629 69.4939 11.9629C69.294 11.9629 69.1208 12.0058 68.9743 12.0918C68.8279 12.1778 68.7139 12.3 68.6325 12.458C68.5535 12.6161 68.5144 12.8056 68.5144 13.0264V15.252H67.907V11.4922H68.5144V12.0566H68.57C68.6654 11.8569 68.8023 11.702 68.9812 11.5928C69.1602 11.4812 69.3882 11.4258 69.6648 11.4258ZM94.4206 11.4258C94.8438 11.4258 95.1687 11.5463 95.3943 11.7881C95.6221 12.0276 95.7361 12.371 95.7361 12.8174V15.252H95.1286V12.9639C95.1286 12.6247 95.0567 12.3737 94.9128 12.2109C94.771 12.0459 94.5497 11.9629 94.2497 11.9629C94.0498 11.9629 93.8766 12.0058 93.7302 12.0918C93.5837 12.1778 93.4698 12.3 93.3884 12.458C93.3094 12.6161 93.2703 12.8056 93.2702 13.0264V15.252H92.6628V11.4922H93.2702V12.0566H93.3259C93.4212 11.8569 93.5581 11.702 93.737 11.5928C93.916 11.4812 94.144 11.4258 94.4206 11.4258ZM79.3259 13.5703C79.0399 13.5866 78.8305 13.6467 78.698 13.749C78.568 13.8512 78.5028 13.995 78.5027 14.1807V14.1885C78.5028 14.3789 78.5754 14.5279 78.7195 14.6348C78.8635 14.7392 79.045 14.791 79.2634 14.791C79.4702 14.791 79.6538 14.7503 79.8142 14.6689C79.9745 14.5852 80.1005 14.4728 80.1911 14.3311C80.2841 14.1893 80.3308 14.0286 80.3308 13.8496V13.5059L79.3259 13.5703ZM59.8396 11.9629C59.6028 11.963 59.4019 12.0186 59.237 12.1299C59.0719 12.2392 58.9445 12.3991 58.8562 12.6084C58.7703 12.8175 58.7273 13.0708 58.7273 13.3682V13.375C58.7273 13.6701 58.7703 13.9227 58.8562 14.1318C58.9445 14.3411 59.0719 14.5017 59.237 14.6133C59.402 14.7248 59.6027 14.7812 59.8396 14.7812C60.0767 14.7812 60.278 14.7249 60.4431 14.6133C60.6082 14.5017 60.734 14.3411 60.82 14.1318C60.9083 13.9226 60.9529 13.6701 60.9529 13.375V13.3682C60.9528 13.0708 60.9083 12.8176 60.82 12.6084C60.734 12.3991 60.6082 12.2392 60.4431 12.1299C60.2781 12.0184 60.0766 11.9629 59.8396 11.9629ZM75.4304 11.9629C75.1934 11.9629 74.9919 12.0184 74.8269 12.1299C74.6618 12.2392 74.5353 12.3991 74.447 12.6084C74.361 12.8176 74.3171 13.0707 74.3171 13.3682V13.375C74.3171 13.6702 74.361 13.9226 74.447 14.1318C74.5353 14.3411 74.6618 14.5017 74.8269 14.6133C74.992 14.7249 75.1932 14.7812 75.4304 14.7812C75.6674 14.7812 75.8689 14.7248 76.0339 14.6133C76.1988 14.5017 76.3239 14.3409 76.4099 14.1318C76.4982 13.9226 76.5427 13.6702 76.5427 13.375V13.3682C76.5427 13.0707 76.4982 12.8176 76.4099 12.6084C76.3239 12.3992 76.1989 12.2392 76.0339 12.1299C75.8689 12.0183 75.6674 11.9629 75.4304 11.9629ZM83.5739 11.9639C83.3461 11.9639 83.1492 12.0208 82.9841 12.1348C82.8215 12.2464 82.6964 12.4071 82.6081 12.6162C82.5222 12.8254 82.4792 13.0763 82.4792 13.3691V13.376C82.4792 13.6666 82.5221 13.9183 82.6081 14.1299C82.6964 14.3388 82.8216 14.5004 82.9841 14.6143C83.1492 14.7259 83.3461 14.7812 83.5739 14.7812C83.8018 14.7812 83.9987 14.7243 84.1638 14.6104C84.3286 14.4964 84.4554 14.335 84.5437 14.126C84.632 13.9144 84.6765 13.6643 84.6765 13.376V13.3691C84.6765 13.0785 84.632 12.8284 84.5437 12.6191C84.4554 12.4101 84.3287 12.2487 84.1638 12.1348C83.9987 12.0208 83.8018 11.9639 83.5739 11.9639ZM89.988 11.9629C89.7509 11.9629 89.5495 12.0184 89.3845 12.1299C89.2194 12.2392 89.093 12.3991 89.0046 12.6084C88.9186 12.8176 88.8757 13.0707 88.8757 13.3682V13.375C88.8757 13.6702 88.9186 13.9226 89.0046 14.1318C89.0929 14.341 89.2195 14.5017 89.3845 14.6133C89.5496 14.7249 89.7508 14.7812 89.988 14.7812C90.2251 14.7812 90.4265 14.7249 90.5915 14.6133C90.7564 14.5017 90.8815 14.341 90.9675 14.1318C91.0558 13.9226 91.1003 13.6702 91.1003 13.375V13.3682C91.1003 13.0707 91.0558 12.8176 90.9675 12.6084C90.8815 12.3991 90.7566 12.2392 90.5915 12.1299C90.4265 12.0183 90.2251 11.9629 89.988 11.9629ZM53.8093 14.6885H54.8669C55.2411 14.6884 55.5609 14.6114 55.8259 14.458C56.0908 14.3046 56.2929 14.0825 56.4323 13.792C56.5719 13.5013 56.6413 13.152 56.6413 12.7451V12.7383C56.6413 12.3292 56.5712 11.9791 56.4294 11.6885C56.2899 11.3956 56.087 11.173 55.822 11.0195C55.557 10.8638 55.2388 10.7852 54.8669 10.7852H53.8093V14.6885ZM107.137 11.9668C106.935 11.9668 106.753 12.0162 106.592 12.1162C106.434 12.2139 106.309 12.3598 106.217 12.5527C106.147 12.6975 106.103 12.867 106.086 13.0615H108.165C108.149 12.8558 108.108 12.6803 108.041 12.5352C107.952 12.3446 107.83 12.2024 107.675 12.1094C107.519 12.0141 107.34 11.9669 107.137 11.9668Z" fill="white"/>
</svg>
