<svg width="240" height="56" viewBox="0 0 240 56" fill="none" xmlns="http://www.w3.org/2000/svg">
<rect width="240" height="56" rx="8" fill="#242424"/>
<path d="M38.7324 21.8445C38.9688 21.8445 39.3718 21.8821 39.9413 21.9574C40.5109 22.0326 41.1341 22.2475 41.8111 22.6021C42.4988 22.946 43.1221 23.5209 43.6809 24.3268C43.6486 24.359 43.4928 24.4772 43.2134 24.6814C42.934 24.8748 42.6224 25.165 42.2785 25.5518C41.9347 25.9279 41.6338 26.4115 41.3759 27.0025C41.118 27.5828 40.989 28.2759 40.989 29.0818C40.989 30.0059 41.1502 30.7904 41.4726 31.4351C41.8057 32.0799 42.1872 32.601 42.617 32.9986C43.0576 33.3855 43.4444 33.6702 43.7776 33.8529C44.1214 34.0356 44.3041 34.1323 44.3256 34.1431C44.3148 34.186 44.1752 34.5675 43.9065 35.2875C43.6486 36.0074 43.2188 36.808 42.617 37.6892C42.0905 38.4521 41.521 39.1559 40.9084 39.8007C40.3067 40.4454 39.5813 40.7678 38.7324 40.7678C38.1629 40.7678 37.6955 40.6872 37.3301 40.526C36.9648 40.3541 36.5887 40.1875 36.2018 40.0264C35.815 39.8544 35.2938 39.7685 34.6383 39.7685C34.0043 39.7685 33.4724 39.8544 33.0426 40.0264C32.6235 40.1983 32.2205 40.3702 31.8337 40.5422C31.4576 40.7141 31.0116 40.8 30.4958 40.8C29.7114 40.8 29.0236 40.4884 28.4326 39.8652C27.8416 39.2419 27.2345 38.4951 26.6112 37.6247C25.8913 36.5931 25.2734 35.3358 24.7576 33.8529C24.2525 32.3593 24 30.8549 24 29.3397C24 27.7171 24.3063 26.3578 24.9188 25.2617C25.5313 24.1549 26.3157 23.3221 27.2721 22.7633C28.2392 22.1938 29.2386 21.909 30.2701 21.909C30.8182 21.909 31.334 22.0003 31.8175 22.183C32.3011 22.355 32.7524 22.5323 33.1715 22.7149C33.6013 22.8976 33.9882 22.989 34.332 22.989C34.6652 22.989 35.052 22.8922 35.4926 22.6988C35.9332 22.5054 36.4275 22.3173 36.9755 22.1347C37.5235 21.9412 38.1092 21.8445 38.7324 21.8445ZM37.8459 19.7975C37.4268 20.3025 36.9003 20.727 36.2663 21.0708C35.6323 21.404 35.0305 21.5705 34.461 21.5705C34.3428 21.5705 34.23 21.5598 34.1225 21.5383C34.1118 21.506 34.101 21.4469 34.0903 21.361C34.0795 21.275 34.0741 21.1837 34.0741 21.087C34.0741 20.4422 34.2138 19.819 34.4932 19.2172C34.7726 18.6047 35.0896 18.0996 35.4442 17.702C35.8956 17.1648 36.4651 16.7188 37.1528 16.3642C37.8405 16.0096 38.496 15.8215 39.1193 15.8C39.1515 15.9397 39.1676 16.1063 39.1676 16.2997C39.1676 16.9445 39.0441 17.5731 38.7969 18.1856C38.5498 18.7874 38.2328 19.3247 37.8459 19.7975Z" fill="white"/>
<path d="M76.4834 29.6064C77.2861 29.6064 77.9805 29.8086 78.5664 30.2129C79.1582 30.6172 79.6152 31.1885 79.9375 31.9268C80.2598 32.665 80.4209 33.5381 80.4209 34.5459V34.5635C80.4209 35.583 80.2598 36.4648 79.9375 37.209C79.6211 37.9473 79.167 38.5156 78.5752 38.9141C77.9893 39.3125 77.292 39.5117 76.4834 39.5117C76.0439 39.5117 75.6338 39.4443 75.2529 39.3096C74.8721 39.1689 74.5381 38.9727 74.251 38.7207C73.9639 38.4688 73.7354 38.1699 73.5654 37.8242H73.416V42.5439H71.2363V29.7646H73.416V31.2764H73.5654C73.7412 30.9248 73.9697 30.626 74.251 30.3799C74.5381 30.1279 74.8691 29.9375 75.2441 29.8086C75.6191 29.6738 76.0322 29.6064 76.4834 29.6064ZM87.8389 29.6064C88.6416 29.6064 89.3359 29.8086 89.9219 30.2129C90.5137 30.6172 90.9707 31.1885 91.293 31.9268C91.6152 32.665 91.7764 33.5381 91.7764 34.5459V34.5635C91.7764 35.583 91.6152 36.4648 91.293 37.209C90.9766 37.9473 90.5225 38.5156 89.9307 38.9141C89.3447 39.3125 88.6475 39.5117 87.8389 39.5117C87.3994 39.5117 86.9893 39.4443 86.6084 39.3096C86.2275 39.1689 85.8936 38.9727 85.6064 38.7207C85.3193 38.4688 85.0908 38.1699 84.9209 37.8242H84.7715V42.5439H82.5918V29.7646H84.7715V31.2764H84.9209C85.0967 30.9248 85.3252 30.626 85.6064 30.3799C85.8936 30.1279 86.2246 29.9375 86.5996 29.8086C86.9746 29.6738 87.3877 29.6064 87.8389 29.6064ZM103.316 26.3633C104.254 26.3633 105.065 26.5186 105.751 26.8291C106.437 27.1396 106.976 27.5645 107.368 28.1035C107.761 28.6426 107.98 29.2549 108.027 29.9404L108.036 30.0547H105.874L105.856 29.9492C105.804 29.6152 105.666 29.3223 105.443 29.0703C105.227 28.8184 104.937 28.6191 104.573 28.4727C104.21 28.3262 103.785 28.2559 103.299 28.2617C102.83 28.2617 102.414 28.332 102.051 28.4727C101.693 28.6133 101.409 28.8154 101.198 29.0791C100.993 29.3369 100.891 29.6475 100.891 30.0107V30.0195C100.891 30.4648 101.063 30.834 101.409 31.127C101.761 31.4141 102.332 31.6396 103.123 31.8037L104.485 32.0938C105.376 32.2812 106.1 32.5303 106.656 32.8408C107.213 33.1514 107.62 33.5381 107.878 34.001C108.142 34.458 108.273 35.0088 108.273 35.6533V35.6621C108.273 36.4824 108.071 37.1914 107.667 37.7891C107.269 38.3867 106.697 38.8496 105.953 39.1777C105.215 39.5 104.339 39.6611 103.325 39.6611C102.341 39.6611 101.485 39.5117 100.759 39.2129C100.038 38.9082 99.4697 38.4834 99.0537 37.9385C98.6377 37.3936 98.4004 36.7578 98.3418 36.0312L98.333 35.9082H100.539L100.548 35.9961C100.589 36.3535 100.732 36.6641 100.979 36.9277C101.225 37.1914 101.556 37.3965 101.972 37.543C102.388 37.6895 102.862 37.7627 103.396 37.7627C103.905 37.7627 104.356 37.6865 104.749 37.5342C105.142 37.376 105.449 37.1592 105.672 36.8838C105.895 36.6025 106.006 36.2803 106.006 35.917V35.9082C106.006 35.4512 105.827 35.0791 105.47 34.792C105.112 34.499 104.523 34.2646 103.703 34.0889L102.341 33.8076C101.046 33.5322 100.103 33.0928 99.5107 32.4893C98.9189 31.8799 98.623 31.1035 98.623 30.1602V30.1514C98.623 29.3955 98.8223 28.7334 99.2207 28.165C99.625 27.5967 100.179 27.1543 100.882 26.8379C101.591 26.5215 102.402 26.3633 103.316 26.3633ZM121.659 29.5713C122.614 29.5713 123.435 29.7705 124.12 30.1689C124.812 30.5674 125.345 31.1387 125.72 31.8828C126.095 32.627 126.282 33.5146 126.282 34.5459V34.5635C126.282 35.5947 126.095 36.4824 125.72 37.2266C125.351 37.9707 124.82 38.5449 124.129 38.9492C123.443 39.3477 122.62 39.5469 121.659 39.5469C120.704 39.5469 119.881 39.3477 119.189 38.9492C118.504 38.5449 117.974 37.9707 117.599 37.2266C117.229 36.4824 117.045 35.5947 117.045 34.5635V34.5459C117.045 33.5205 117.232 32.6357 117.607 31.8916C117.982 31.1475 118.513 30.5762 119.198 30.1777C119.89 29.7734 120.71 29.5713 121.659 29.5713ZM139.633 29.5713C140.541 29.5713 141.323 29.7734 141.979 30.1777C142.642 30.5762 143.151 31.1357 143.509 31.8564C143.866 32.5771 144.045 33.4209 144.045 34.3877V35.1084H137.332C137.342 35.657 137.44 36.1316 137.629 36.5322C137.828 36.9541 138.109 37.2764 138.473 37.499C138.842 37.7217 139.278 37.833 139.782 37.833C140.175 37.833 140.512 37.7773 140.793 37.666C141.074 37.5488 141.303 37.4111 141.479 37.2529C141.66 37.0889 141.783 36.9307 141.848 36.7783L141.874 36.7168H143.948L143.931 36.8047C143.854 37.1152 143.714 37.4316 143.509 37.7539C143.31 38.0703 143.037 38.3662 142.691 38.6416C142.352 38.9111 141.936 39.1309 141.443 39.3008C140.951 39.4648 140.38 39.5469 139.729 39.5469C138.78 39.5469 137.963 39.3447 137.277 38.9404C136.598 38.5361 136.073 37.9648 135.704 37.2266C135.335 36.4824 135.15 35.6006 135.15 34.5811V34.5723C135.15 33.5645 135.332 32.6885 135.695 31.9443C136.064 31.1943 136.586 30.6113 137.26 30.1953C137.934 29.7793 138.725 29.5713 139.633 29.5713ZM113.441 29.7646H115.454V31.4521H113.441V36.3037C113.441 36.7783 113.541 37.124 113.74 37.3408C113.945 37.5576 114.273 37.666 114.725 37.666C114.877 37.666 115.003 37.6631 115.103 37.6572C115.208 37.6455 115.325 37.6338 115.454 37.6221V39.3096C115.302 39.333 115.126 39.3535 114.927 39.3711C114.733 39.3945 114.531 39.4062 114.32 39.4062C113.225 39.4062 112.434 39.2041 111.947 38.7998C111.461 38.3955 111.218 37.7305 111.218 36.8047V31.4521H109.732V29.7646H111.218V27.4004H113.441V29.7646ZM64.8203 26.6709L69.3203 39.3535H66.9473L65.8896 36.0752H61.1934L60.1357 39.3535H57.7627L62.2627 26.6709H64.8203ZM133.243 29.6064C133.407 29.6064 133.565 29.6152 133.718 29.6328C133.876 29.6504 134.011 29.6738 134.122 29.7031V31.6631C133.946 31.6221 133.768 31.5928 133.586 31.5752C133.41 31.5518 133.229 31.54 133.041 31.54C132.555 31.54 132.13 31.6309 131.767 31.8125C131.409 31.9941 131.131 32.252 130.932 32.5859C130.732 32.9199 130.633 33.3184 130.633 33.7812V39.3535H128.453V29.7646H130.633V31.2412H130.782C130.946 30.7197 131.239 30.3184 131.661 30.0371C132.089 29.75 132.616 29.6064 133.243 29.6064ZM121.659 31.3467C121.155 31.3467 120.728 31.4727 120.376 31.7246C120.024 31.9766 119.752 32.3428 119.559 32.8232C119.371 33.2979 119.277 33.8721 119.277 34.5459V34.5635C119.277 35.2432 119.371 35.8232 119.559 36.3037C119.746 36.7783 120.016 37.1416 120.367 37.3936C120.725 37.6455 121.155 37.7715 121.659 37.7715C122.169 37.7715 122.6 37.6455 122.951 37.3936C123.303 37.1357 123.572 36.7695 123.76 36.2949C123.947 35.8145 124.041 35.2373 124.041 34.5635V34.5459C124.041 33.8721 123.947 33.2979 123.76 32.8232C123.572 32.3428 123.3 31.9766 122.942 31.7246C122.591 31.4727 122.163 31.3467 121.659 31.3467ZM75.7979 31.4434C75.3057 31.4434 74.8779 31.5693 74.5146 31.8213C74.1572 32.0732 73.8789 32.4307 73.6797 32.8936C73.4863 33.3506 73.3896 33.9014 73.3896 34.5459V34.5635C73.3896 35.2021 73.4863 35.7559 73.6797 36.2246C73.8789 36.6875 74.1572 37.0449 74.5146 37.2969C74.8779 37.543 75.3057 37.666 75.7979 37.666C76.2959 37.666 76.7236 37.543 77.0811 37.2969C77.4385 37.0449 77.7139 36.6875 77.9072 36.2246C78.1006 35.7617 78.1973 35.208 78.1973 34.5635V34.5459C78.1973 33.9014 78.1006 33.3477 77.9072 32.8848C77.7139 32.4219 77.4385 32.0674 77.0811 31.8213C76.7236 31.5693 76.2959 31.4434 75.7979 31.4434ZM87.1533 31.4434C86.6611 31.4434 86.2334 31.5693 85.8701 31.8213C85.5127 32.0732 85.2344 32.4307 85.0352 32.8936C84.8418 33.3506 84.7451 33.9014 84.7451 34.5459V34.5635C84.7451 35.2021 84.8418 35.7559 85.0352 36.2246C85.2344 36.6875 85.5127 37.0449 85.8701 37.2969C86.2334 37.543 86.6611 37.666 87.1533 37.666C87.6514 37.666 88.0791 37.543 88.4365 37.2969C88.7939 37.0449 89.0693 36.6875 89.2627 36.2246C89.4561 35.7617 89.5527 35.208 89.5527 34.5635V34.5459C89.5527 33.9014 89.4561 33.3477 89.2627 32.8848C89.0693 32.4219 88.7939 32.0674 88.4365 31.8213C88.0791 31.5693 87.6514 31.4434 87.1533 31.4434ZM63.4668 29.0264L61.7578 34.3262H65.3252L63.6162 29.0264H63.4668ZM139.659 31.2852C139.208 31.2852 138.807 31.3965 138.455 31.6191C138.109 31.8359 137.834 32.1582 137.629 32.5859C137.486 32.8879 137.396 33.2396 137.355 33.6406H141.912C141.874 33.2203 141.786 32.8569 141.646 32.5508C141.452 32.1289 141.183 31.8125 140.837 31.6016C140.497 31.3906 140.104 31.2852 139.659 31.2852ZM67.376 15.9971C67.8773 15.9971 68.3086 16.1061 68.6699 16.3242C69.0312 16.5423 69.3096 16.8548 69.5049 17.2617C69.7035 17.6686 69.8027 18.1536 69.8027 18.7168V18.7266C69.8027 19.2865 69.7035 19.7699 69.5049 20.1768C69.3096 20.5837 69.0312 20.8978 68.6699 21.1191C68.3086 21.3372 67.8773 21.4463 67.376 21.4463C66.8779 21.4463 66.4466 21.3372 66.082 21.1191C65.7207 20.8978 65.4408 20.5837 65.2422 20.1768C65.0469 19.7699 64.9492 19.2865 64.9492 18.7266V18.7168C64.9492 18.1536 65.0469 17.6686 65.2422 17.2617C65.4408 16.8548 65.7207 16.5423 66.082 16.3242C66.4466 16.1061 66.8779 15.9971 67.376 15.9971ZM89.2021 15.9971C89.7035 15.9971 90.1348 16.1061 90.4961 16.3242C90.8574 16.5423 91.1357 16.8548 91.3311 17.2617C91.5296 17.6686 91.6289 18.1536 91.6289 18.7168V18.7266C91.6289 19.2865 91.5296 19.7699 91.3311 20.1768C91.1357 20.5837 90.8574 20.8978 90.4961 21.1191C90.1348 21.3372 89.7035 21.4463 89.2021 21.4463C88.7041 21.4463 88.2728 21.3372 87.9082 21.1191C87.5469 20.8978 87.2669 20.5837 87.0684 20.1768C86.873 19.7699 86.7754 19.2865 86.7754 18.7266V18.7168C86.7754 18.1536 86.873 17.6686 87.0684 17.2617C87.2669 16.8548 87.5469 16.5423 87.9082 16.3242C88.2728 16.1061 88.7041 15.9971 89.2021 15.9971ZM94.9102 15.9971C95.3398 15.9971 95.7028 16.0671 95.999 16.207C96.2985 16.347 96.5247 16.5488 96.6777 16.8125C96.834 17.0729 96.9121 17.3854 96.9121 17.75V21.3535H96.0625V20.5771H95.9844C95.8737 20.7627 95.7386 20.9206 95.5791 21.0508C95.4229 21.181 95.2454 21.2803 95.0469 21.3486C94.8483 21.4137 94.6302 21.4463 94.3926 21.4463C94.0605 21.4463 93.7611 21.3828 93.4941 21.2559C93.2305 21.1289 93.0205 20.9482 92.8643 20.7139C92.7113 20.4795 92.6348 20.2028 92.6348 19.8838V19.874C92.6348 19.5615 92.7096 19.2946 92.8594 19.0732C93.0091 18.8486 93.2272 18.6729 93.5137 18.5459C93.8001 18.4189 94.1468 18.3441 94.5537 18.3213L96.0625 18.2295V17.75C96.0625 17.4245 95.9632 17.1771 95.7646 17.0078C95.5693 16.8353 95.2747 16.749 94.8809 16.749C94.5651 16.749 94.3063 16.806 94.1045 16.9199C93.9027 17.0306 93.7676 17.1885 93.6992 17.3936L93.6943 17.4082H92.8447L92.8496 17.3789C92.8952 17.1022 93.0091 16.8613 93.1914 16.6562C93.377 16.4479 93.6162 16.2868 93.9092 16.1729C94.2021 16.0557 94.5358 15.9971 94.9102 15.9971ZM102.977 21.3535H102.127V20.5137H102.049C101.941 20.709 101.806 20.8766 101.644 21.0166C101.481 21.1533 101.295 21.2591 101.087 21.334C100.879 21.4089 100.652 21.4463 100.408 21.4463C99.9655 21.4463 99.5781 21.334 99.2461 21.1094C98.9141 20.8848 98.6569 20.569 98.4746 20.1621C98.2923 19.752 98.2012 19.2734 98.2012 18.7266V18.7168C98.2012 18.1667 98.2923 17.6882 98.4746 17.2812C98.6569 16.8743 98.9124 16.5586 99.2412 16.334C99.5732 16.1094 99.9622 15.9971 100.408 15.9971C100.649 15.9971 100.875 16.0361 101.087 16.1143C101.302 16.1891 101.492 16.2949 101.658 16.4316C101.824 16.5684 101.954 16.7311 102.049 16.9199H102.127V14H102.977V21.3535ZM109.583 15.9971C110.084 15.9971 110.516 16.1061 110.877 16.3242C111.238 16.5423 111.517 16.8548 111.712 17.2617C111.91 17.6686 112.01 18.1536 112.01 18.7168V18.7266C112.01 19.2865 111.91 19.7699 111.712 20.1768C111.517 20.5837 111.238 20.8978 110.877 21.1191C110.516 21.3372 110.084 21.4463 109.583 21.4463C109.085 21.4463 108.654 21.3372 108.289 21.1191C107.928 20.8978 107.648 20.5837 107.449 20.1768C107.254 19.7699 107.156 19.2865 107.156 18.7266V18.7168C107.156 18.1536 107.254 17.6686 107.449 17.2617C107.648 16.8548 107.928 16.5423 108.289 16.3242C108.654 16.1061 109.085 15.9971 109.583 15.9971ZM133.597 15.9971C134.075 15.9971 134.485 16.1077 134.827 16.3291C135.172 16.5505 135.436 16.8597 135.618 17.2568C135.804 17.6507 135.896 18.1097 135.896 18.6338V18.9658H132.11C132.117 19.3151 132.178 19.6163 132.298 19.8691C132.425 20.1328 132.605 20.3363 132.84 20.4795C133.074 20.6195 133.351 20.6895 133.67 20.6895C133.908 20.6895 134.114 20.6569 134.29 20.5918C134.466 20.5267 134.611 20.4437 134.725 20.3428C134.839 20.2419 134.918 20.1393 134.964 20.0352L134.983 19.9912H135.833L135.823 20.0303C135.778 20.2093 135.696 20.3835 135.579 20.5527C135.465 20.7188 135.317 20.8701 135.135 21.0068C134.952 21.1403 134.736 21.2477 134.485 21.3291C134.238 21.4072 133.96 21.4463 133.65 21.4463C133.149 21.4463 132.718 21.3356 132.356 21.1143C131.998 20.8929 131.722 20.5804 131.526 20.1768C131.334 19.7699 131.238 19.2913 131.238 18.7412V18.7363C131.238 18.1927 131.334 17.7158 131.526 17.3057C131.722 16.8955 131.997 16.5749 132.352 16.3438C132.706 16.1126 133.121 15.9971 133.597 15.9971ZM123.191 16.0898H124.344V16.793H123.191V19.7715C123.191 20.0807 123.25 20.3037 123.367 20.4404C123.484 20.5739 123.68 20.6406 123.953 20.6406C124.028 20.6406 124.091 20.639 124.144 20.6357C124.199 20.6325 124.266 20.6276 124.344 20.6211V21.3438C124.262 21.3568 124.181 21.3682 124.1 21.3779C124.018 21.3877 123.935 21.3926 123.851 21.3926C123.31 21.3926 122.918 21.2835 122.674 21.0654C122.433 20.8473 122.312 20.4876 122.312 19.9863V16.793H121.482V16.0898H122.312V14.7275H123.191V16.0898ZM60.4717 14.3076C61.1683 14.3076 61.764 14.4476 62.2588 14.7275C62.7568 15.0042 63.1377 15.4046 63.4014 15.9287C63.665 16.4528 63.7969 17.0843 63.7969 17.8232V17.833C63.7969 18.5719 63.665 19.2051 63.4014 19.7324C63.1377 20.2565 62.7585 20.6585 62.2637 20.9385C61.7689 21.2152 61.1715 21.3535 60.4717 21.3535H58.0547V14.3076H60.4717ZM72.3516 20.2988H72.4297L73.6064 16.0898H74.4121L75.5889 20.2988H75.667L76.7021 16.0898H77.5469L76.0723 21.3535H75.2178L74.041 17.2812H73.9629L72.791 21.3535H71.9414L70.4668 16.0898H71.3164L72.3516 20.2988ZM81.1309 15.9971C81.7233 15.9971 82.1774 16.1663 82.4932 16.5049C82.8122 16.8402 82.9717 17.3203 82.9717 17.9453V21.3535H82.1221V18.1504C82.1221 17.6751 82.0212 17.3236 81.8193 17.0957C81.6208 16.8646 81.3115 16.749 80.8916 16.749C80.6117 16.749 80.3691 16.8092 80.1641 16.9297C79.959 17.0501 79.7995 17.221 79.6855 17.4424C79.5749 17.6637 79.5195 17.929 79.5195 18.2383V21.3535H78.6699V16.0898H79.5195V16.8809H79.5977C79.7311 16.6009 79.9232 16.3844 80.1738 16.2314C80.4245 16.0752 80.7435 15.9971 81.1309 15.9971ZM85.4082 21.3535H84.5586V14H85.4082V21.3535ZM115.789 15.9971C116.382 15.9971 116.836 16.1663 117.151 16.5049C117.47 16.8402 117.63 17.3203 117.63 17.9453V21.3535H116.78V18.1504C116.78 17.6751 116.679 17.3236 116.478 17.0957C116.279 16.8646 115.97 16.749 115.55 16.749C115.27 16.749 115.027 16.8092 114.822 16.9297C114.617 17.0501 114.458 17.221 114.344 17.4424C114.233 17.6637 114.178 17.929 114.178 18.2383V21.3535H113.328V16.0898H114.178V16.8809H114.256C114.389 16.6009 114.581 16.3844 114.832 16.2314C115.083 16.0752 115.402 15.9971 115.789 15.9971ZM126.512 16.8809H126.59C126.723 16.6009 126.915 16.3844 127.166 16.2314C127.417 16.0752 127.736 15.9971 128.123 15.9971C128.517 15.9971 128.851 16.0736 129.124 16.2266C129.397 16.3763 129.606 16.596 129.749 16.8857C129.892 17.1755 129.964 17.5286 129.964 17.9453V21.3535H129.114V18.1504C129.114 17.6751 129.013 17.3236 128.812 17.0957C128.613 16.8646 128.304 16.749 127.884 16.749C127.604 16.749 127.361 16.8092 127.156 16.9297C126.951 17.0501 126.792 17.221 126.678 17.4424C126.567 17.6637 126.512 17.929 126.512 18.2383V21.3535H125.662V14H126.512V16.8809ZM94.6562 19C94.2559 19.0228 93.9629 19.1058 93.7773 19.249C93.5951 19.3923 93.5039 19.5941 93.5039 19.8545V19.8643C93.5039 20.1312 93.6048 20.3395 93.8066 20.4893C94.0085 20.6357 94.2624 20.709 94.5684 20.709C94.8581 20.709 95.1152 20.652 95.3398 20.5381C95.5645 20.4209 95.7402 20.263 95.8672 20.0645C95.9974 19.8659 96.0625 19.6413 96.0625 19.3906V18.9092L94.6562 19ZM67.376 16.749C67.0439 16.749 66.7624 16.8271 66.5312 16.9834C66.3001 17.1364 66.1227 17.3594 65.999 17.6523C65.8786 17.9453 65.8184 18.3001 65.8184 18.7168V18.7266C65.8184 19.14 65.8786 19.4932 65.999 19.7861C66.1227 20.0791 66.3001 20.3037 66.5312 20.46C66.7624 20.6162 67.0439 20.6943 67.376 20.6943C67.708 20.6943 67.9896 20.6162 68.2207 20.46C68.4518 20.3037 68.6276 20.0791 68.748 19.7861C68.8717 19.4932 68.9336 19.14 68.9336 18.7266V18.7168C68.9336 18.3001 68.8717 17.9453 68.748 17.6523C68.6276 17.3594 68.4518 17.1364 68.2207 16.9834C67.9896 16.8271 67.708 16.749 67.376 16.749ZM89.2021 16.749C88.8701 16.749 88.5885 16.8271 88.3574 16.9834C88.1263 17.1364 87.9489 17.3594 87.8252 17.6523C87.7048 17.9453 87.6445 18.3001 87.6445 18.7168V18.7266C87.6445 19.14 87.7048 19.4932 87.8252 19.7861C87.9489 20.0791 88.1263 20.3037 88.3574 20.46C88.5885 20.6162 88.8701 20.6943 89.2021 20.6943C89.5342 20.6943 89.8158 20.6162 90.0469 20.46C90.278 20.3037 90.4538 20.0791 90.5742 19.7861C90.6979 19.4932 90.7598 19.14 90.7598 18.7266V18.7168C90.7598 18.3001 90.6979 17.9453 90.5742 17.6523C90.4538 17.3594 90.278 17.1364 90.0469 16.9834C89.8158 16.8271 89.5342 16.749 89.2021 16.749ZM100.604 16.749C100.285 16.749 100.009 16.8288 99.7783 16.9883C99.5505 17.1445 99.3747 17.3691 99.251 17.6621C99.1305 17.9551 99.0703 18.3066 99.0703 18.7168V18.7266C99.0703 19.1335 99.1305 19.485 99.251 19.7812C99.3747 20.0742 99.5505 20.3005 99.7783 20.46C100.009 20.6162 100.285 20.6943 100.604 20.6943C100.923 20.6943 101.198 20.6146 101.429 20.4551C101.66 20.2956 101.837 20.0693 101.961 19.7764C102.085 19.4801 102.146 19.1302 102.146 18.7266V18.7168C102.146 18.3099 102.085 17.96 101.961 17.667C101.837 17.374 101.66 17.1478 101.429 16.9883C101.198 16.8288 100.923 16.749 100.604 16.749ZM109.583 16.749C109.251 16.749 108.969 16.8271 108.738 16.9834C108.507 17.1364 108.33 17.3594 108.206 17.6523C108.086 17.9453 108.025 18.3001 108.025 18.7168V18.7266C108.025 19.14 108.086 19.4932 108.206 19.7861C108.33 20.0791 108.507 20.3037 108.738 20.46C108.969 20.6162 109.251 20.6943 109.583 20.6943C109.915 20.6943 110.197 20.6162 110.428 20.46C110.659 20.3037 110.835 20.0791 110.955 19.7861C111.079 19.4932 111.141 19.14 111.141 18.7266V18.7168C111.141 18.3001 111.079 17.9453 110.955 17.6523C110.835 17.3594 110.659 17.1364 110.428 16.9834C110.197 16.8271 109.915 16.749 109.583 16.749ZM58.9336 20.5625H60.4131C60.9372 20.5625 61.3848 20.4551 61.7559 20.2402C62.127 20.0254 62.4102 19.7145 62.6055 19.3076C62.8008 18.9007 62.8984 18.4124 62.8984 17.8428V17.833C62.8984 17.2601 62.7992 16.7702 62.6006 16.3633C62.4053 15.9531 62.1221 15.6406 61.751 15.4258C61.3799 15.2077 60.9339 15.0986 60.4131 15.0986H58.9336V20.5625ZM133.592 16.7539C133.309 16.7539 133.055 16.8239 132.83 16.9639C132.609 17.1006 132.433 17.304 132.303 17.5742C132.205 17.777 132.145 18.0147 132.12 18.2871H135.031C135.009 17.9989 134.951 17.7531 134.856 17.5498C134.733 17.2829 134.562 17.0843 134.344 16.9541C134.126 16.8206 133.875 16.7539 133.592 16.7539Z" fill="white"/>
<path d="M211.099 22.2346L215.215 26.3498C216.126 27.261 216.126 28.7394 215.215 29.6506L211.099 33.7658L209.568 32.2346L213.683 28.1183C213.748 28.0533 213.748 27.9471 213.683 27.882L209.568 23.7658L211.099 22.2346Z" fill="white"/>
</svg>
