<svg width="28" height="28" viewBox="0 0 28 28" fill="none" xmlns="http://www.w3.org/2000/svg">
<rect width="28" height="28" rx="14" fill="#242424"/>
<path d="M14.0006 8C12.371 8 12.1665 8.00712 11.5265 8.03625C10.8878 8.0655 10.4518 8.16662 10.0703 8.31501C9.67564 8.46825 9.34089 8.67325 9.00739 9.00687C8.67364 9.34038 8.46863 9.67512 8.31488 10.0696C8.16612 10.4513 8.06487 10.8874 8.03613 11.5259C8.0075 12.1659 8 12.3705 8 14C8 15.6295 8.00725 15.8334 8.03625 16.4734C8.06563 17.1121 8.16675 17.5481 8.315 17.9296C8.46838 18.3243 8.67338 18.659 9.00701 18.9925C9.34039 19.3263 9.67514 19.5318 10.0695 19.685C10.4513 19.8334 10.8874 19.9345 11.526 19.9638C12.166 19.9929 12.3704 20 13.9998 20C15.6295 20 15.8333 19.9929 16.4733 19.9637C17.1121 19.9345 17.5486 19.8334 17.9304 19.685C18.3249 19.5318 18.6591 19.3263 18.9925 18.9925C19.3262 18.659 19.5312 18.3243 19.685 17.9298C19.8325 17.5481 19.9338 17.112 19.9638 16.4735C19.9925 15.8335 20 15.6295 20 14C20 12.3705 19.9925 12.166 19.9638 11.526C19.9338 10.8872 19.8325 10.4513 19.685 10.0698C19.5312 9.67512 19.3262 9.34037 18.9925 9.00687C18.6587 8.67312 18.325 8.46812 17.93 8.315C17.5475 8.16663 17.1112 8.0655 16.4725 8.03625C15.8325 8.00712 15.6287 8 13.9987 8H14.0006ZM13.4623 9.08125C13.6221 9.081 13.8003 9.08125 14.0006 9.08125C15.6026 9.08125 15.7925 9.087 16.4251 9.11575C17.0101 9.1425 17.3276 9.24025 17.5391 9.32237C17.8191 9.43112 18.0187 9.56113 18.2286 9.77112C18.4386 9.98113 18.5686 10.1811 18.6776 10.4611C18.7597 10.6724 18.8576 10.9899 18.8842 11.5749C18.913 12.2074 18.9192 12.3974 18.9192 13.9986C18.9192 15.5999 18.913 15.7899 18.8842 16.4224C18.8575 17.0074 18.7597 17.3249 18.6776 17.5361C18.5689 17.8161 18.4386 18.0155 18.2286 18.2254C18.0186 18.4354 17.8192 18.5654 17.5391 18.6741C17.3278 18.7566 17.0101 18.8541 16.4251 18.8809C15.7926 18.9096 15.6026 18.9159 14.0006 18.9159C12.3984 18.9159 12.2085 18.9096 11.576 18.8809C10.991 18.8539 10.6735 18.7561 10.4619 18.674C10.1819 18.5653 9.98189 18.4352 9.77189 18.2253C9.56189 18.0153 9.43189 17.8158 9.32289 17.5356C9.24076 17.3244 9.14289 17.0069 9.11626 16.4219C9.08751 15.7894 9.08176 15.5994 9.08176 13.9971C9.08176 12.3949 9.08751 12.2059 9.11626 11.5734C9.14301 10.9884 9.24076 10.6709 9.32289 10.4594C9.43164 10.1794 9.56189 9.97938 9.77189 9.76938C9.98189 9.55937 10.1819 9.42938 10.4619 9.32038C10.6734 9.23787 10.991 9.14038 11.576 9.1135C12.1295 9.0885 12.344 9.081 13.4623 9.07974L13.4623 9.08125ZM17.2033 10.0775C16.8058 10.0775 16.4833 10.3996 16.4833 10.7972C16.4833 11.1948 16.8058 11.5173 17.2033 11.5173C17.6008 11.5173 17.9234 11.1948 17.9234 10.7972C17.9234 10.3997 17.6008 10.0773 17.2033 10.0773L17.2033 10.0775ZM14.0006 10.9187C12.2989 10.9187 10.9193 12.2984 10.9193 14C10.9193 15.7016 12.2989 17.0806 14.0006 17.0806C15.7022 17.0806 17.0813 15.7016 17.0813 14C17.0813 12.2984 15.7021 10.9187 14.0004 10.9187H14.0006ZM14.0006 12C15.1051 12 16.0006 12.8954 16.0006 14C16.0006 15.1045 15.1051 16 14.0006 16C12.8959 16 12.0005 15.1045 12.0005 14C12.0005 12.8954 12.8959 12 14.0006 12Z" fill="white"/>
</svg>
