<svg width="78" height="25" viewBox="0 0 78 25" fill="none" xmlns="http://www.w3.org/2000/svg">
<path d="M61.2922 6.53774C63.2687 6.57432 64.8157 8.26883 64.8159 10.2454V16.4798C64.8158 18.0364 63.8248 19.36 62.4407 19.8578C62.3751 19.8821 62.3292 19.9429 62.3292 20.0133V21.0082C62.3292 21.1005 62.4042 21.1765 62.4964 21.1765H63.1353C64.1187 21.1766 64.9756 21.9343 65.0047 22.9178C65.0361 23.9351 64.2206 24.7676 63.2106 24.7677H59.2476C58.2375 24.7677 57.4211 23.9352 57.4525 22.9178C57.4816 21.9344 58.3386 21.1767 59.322 21.1765H59.9539C60.0462 21.1764 60.1212 21.1005 60.1212 21.0082V20.0133C60.1212 19.9429 60.0752 19.8821 60.0097 19.8578C58.6255 19.36 57.6346 18.0364 57.6345 16.4798V10.127C57.6345 8.12351 59.279 6.50132 61.2922 6.53774ZM22.0814 7.46025C23.2954 7.46025 24.4032 7.58143 25.4036 7.82905C26.4041 8.07433 27.2595 8.45089 27.9686 8.95601V8.9609C28.6776 9.46598 29.224 10.1047 29.6052 10.8793C29.9865 11.6539 30.1784 12.5695 30.1785 13.6233V23.991C30.1782 24.6708 27.6091 24.5343 27.274 24.3911C26.9391 24.2477 27.2566 22.9643 27.0021 23.1624C26.7471 23.3615 26.4045 23.6651 25.6932 23.988C24.6562 24.4567 23.6652 24.756 22.2154 24.756C21.0231 24.756 20.0858 24.7505 19.129 24.527C18.1723 24.3012 17.3515 23.9666 16.6667 23.5175C15.9796 23.0683 15.4525 22.495 15.0809 21.8006C14.7094 21.1037 14.5243 20.2969 14.5243 19.3765C14.5244 17.8298 14.986 16.6402 15.9085 15.8097C16.3578 15.4066 16.9455 15.2264 17.7614 15.122C17.9313 15.1002 18.1112 15.1222 18.2593 15.2071C18.6502 15.4329 19.1042 15.5641 19.5898 15.5642C20.4494 15.5642 21.2127 15.1557 21.7009 14.5243C21.7737 14.43 21.9166 14.43 21.9894 14.5243C22.4775 15.1556 23.24 15.5641 24.0996 15.5642C25.6756 15.5642 26.9337 14.1969 26.7516 12.5844C26.6205 11.4236 25.7124 10.4573 24.5613 10.263C23.5148 10.0882 22.5606 10.5199 21.9875 11.2628C21.9146 11.3575 21.7708 11.3575 21.6979 11.2628C21.2098 10.6316 20.4473 10.2238 19.5878 10.2238C18.6165 10.2238 17.7669 10.7411 17.3006 11.5181C17.1719 11.7318 16.9526 11.8773 16.7049 11.9065C16.2752 11.955 15.9309 11.933 15.841 11.7509C15.6396 11.3358 15.5368 10.9038 15.5368 10.4547C15.5368 9.87188 15.6777 9.40502 15.9594 9.05775C16.2411 8.71057 16.6735 8.41421 17.2586 8.16655C17.9094 7.91886 18.6795 7.73924 19.5682 7.62753C20.4569 7.51584 21.2947 7.46027 22.0814 7.46025ZM9.15754 0C12.5914 6.44703e-07 14.9349 0.0752771 17.8709 0.206414C18.4342 0.230747 18.8788 0.696802 18.8766 1.26C18.8742 1.98612 18.8638 2.7055 18.8541 3.41219C18.8467 3.96579 18.405 4.41704 17.8514 4.44132L17.8494 4.43936C15.7198 4.5365 14.391 4.6 12.0356 4.62915C11.8972 4.63158 11.7823 4.74312 11.7871 4.88154C11.8405 6.86548 11.8703 8.95381 11.8703 11.1102C11.8703 15.7775 11.7336 20.1219 11.5005 23.7718C11.4665 24.3231 11.0128 24.7511 10.4616 24.7511H9.97146C9.52219 24.7511 8.85115 24.7486 8.40917 24.7462C7.8605 24.7436 7.4062 24.3157 7.37221 23.7669C7.1391 20.1195 7.00341 15.775 7.00341 11.1102C7.00341 8.95613 7.03215 6.86999 7.08558 4.88839C7.09038 4.75001 6.97647 4.636 6.83808 4.636C4.49239 4.61414 3.16406 4.55562 1.02719 4.46578C0.475926 4.44149 0.0317519 3.99229 0.0244665 3.4386C0.0123274 2.71265 0.00486662 1.977 9.9112e-06 1.23164C-0.00241793 0.670805 0.441491 0.204038 1.00469 0.181957C3.79257 0.0653908 5.93982 0 9.15754 0ZM36.4198 3.30751C36.9831 3.31009 37.4447 3.75964 37.4617 4.32295C37.5272 6.47203 37.5605 8.74982 37.5605 11.1102C37.5605 15.775 37.4248 20.1195 37.1917 23.7669C37.1552 24.3182 36.7011 24.7481 36.1498 24.7481H34.3283C33.7772 24.7455 33.3229 24.3181 33.2864 23.7669C33.0533 20.1195 32.9176 15.775 32.9176 11.1102C32.9176 8.74981 32.9519 6.47204 33.0174 4.32295C33.0344 3.75955 33.4959 3.30994 34.0593 3.30751C34.4501 3.30509 34.8434 3.30556 35.2391 3.30556C35.6349 3.30556 36.0288 3.30751 36.4198 3.30751ZM45.3074 1.75794C45.8659 1.76037 46.3205 2.20505 46.3424 2.7636C46.4419 5.35477 46.495 8.16732 46.495 11.1082C46.495 11.647 46.4925 12.181 46.4901 12.7125C46.5823 12.664 46.6752 12.6188 46.7699 12.5727C48.8001 11.5624 50.7789 10.6119 52.661 9.74254C53.3021 9.44629 54.0597 9.7118 54.3778 10.3432C54.5162 10.6175 54.6552 10.8945 54.7936 11.1737C54.8882 11.363 54.9683 11.5256 55.0411 11.6736C55.3543 12.3074 55.1065 13.0744 54.4825 13.4071C52.8992 14.2546 51.2262 15.1224 49.4875 15.9966C49.8103 16.2951 50.1307 16.5961 50.456 16.8995L50.4511 16.8976C52.1048 18.4493 53.6839 19.9719 55.1555 21.4338C55.6556 21.9316 55.6696 22.7352 55.1888 23.2524C54.98 23.4758 54.7686 23.7045 54.5549 23.9303C54.4119 24.083 54.2883 24.2141 54.1743 24.3353C53.6887 24.8501 52.8842 24.8872 52.3548 24.4185C50.8006 23.044 49.1788 21.567 47.5251 20.0153C47.1293 19.6462 46.7407 19.2795 46.357 18.9128C46.2963 20.632 46.2164 22.259 46.1193 23.7669C46.0829 24.3158 45.6283 24.7432 45.0794 24.7432H43.253C42.7019 24.7431 42.2481 24.3186 42.2141 23.7699C41.981 20.1199 41.8443 15.7728 41.8443 11.1053C41.8443 9.47823 41.8616 7.89006 41.8932 6.35774C41.8981 6.16346 41.7451 6.00604 41.5508 6.00361C41.1284 5.99629 40.7835 5.6585 40.776 5.23372C40.7639 4.52217 40.754 3.80272 40.7467 3.07175C40.7395 2.3579 41.3134 1.77305 42.0272 1.76577H42.039C42.039 1.76577 42.8837 1.75599 43.3088 1.75598H44.1716C44.5526 1.75599 44.9312 1.75794 45.3074 1.75794ZM73.3562 3.35153C73.9196 3.35396 74.3791 3.80063 74.3961 4.36404C74.4252 5.37414 74.4495 6.41337 74.4665 7.47688C74.4665 7.6153 74.5809 7.72731 74.7169 7.72731C75.4817 7.7346 76.2343 7.74405 76.9748 7.75862V7.75373C77.5455 7.76587 78.0024 8.23518 78 8.80829C77.9951 9.52203 77.9872 10.226 77.9775 10.9204C77.9678 11.4837 77.5166 11.9407 76.9532 11.9505C76.2271 11.9651 75.4884 11.9745 74.7404 11.9818C74.6047 11.9844 74.4912 12.0961 74.4909 12.2342C74.4788 14.9516 74.4179 17.546 74.3207 19.9429C74.2991 20.5376 74.7722 21.0301 75.3645 21.0327C76.0906 21.0375 76.6813 21.5553 76.6813 22.279V23.4294C76.6813 24.1506 76.0959 24.7382 75.3724 24.7384H74.0605C73.4389 24.7432 72.8096 24.7462 72.1734 24.7462H72.1548C71.0985 24.7462 70.2258 23.9248 70.1651 22.8708C69.9805 19.7213 69.8714 16.103 69.852 12.2371C69.852 12.0988 69.7408 11.985 69.6026 11.9847C68.8935 11.9774 68.1962 11.9675 67.5091 11.9554C66.9457 11.9457 66.4936 11.4887 66.4838 10.9253C66.4741 10.2309 66.4672 9.52408 66.4623 8.81025C66.46 8.23724 66.9165 7.76637 67.4895 7.75666C68.1912 7.74452 68.9025 7.7346 69.626 7.72731C69.762 7.72488 69.8765 7.61287 69.8765 7.47688C69.8935 6.41579 69.9178 5.37414 69.9469 4.36404C69.9639 3.80306 70.4234 3.35396 70.9868 3.35153C71.3801 3.34911 71.7734 3.3486 72.1715 3.3486C72.5696 3.3486 72.9629 3.35153 73.3562 3.35153ZM26.3095 18.1067C25.5104 17.1356 23.5826 18.1141 22.145 18.1214C20.7049 18.1287 18.9972 17.3347 18.0744 18.005C17.1521 18.6754 17.1694 20.3485 18.6311 21.1012C20.093 21.8539 22.6599 22.1236 24.7071 21.3927H24.709C26.7562 20.6642 27.1084 19.0781 26.3095 18.1067ZM18.8257 12.6568C18.9619 12.22 19.4257 11.975 19.8627 12.1109C20.2995 12.2471 20.5445 12.7109 20.4086 13.1479C20.2725 13.5849 19.8087 13.8297 19.3716 13.6937C18.9346 13.5577 18.6898 13.0938 18.8257 12.6568ZM23.3473 12.6568C23.4834 12.2199 23.9472 11.975 24.3842 12.1109C24.8212 12.247 25.0661 12.7108 24.9301 13.1479C24.794 13.5848 24.3302 13.8297 23.8931 13.6937C23.4563 13.5576 23.2113 13.0938 23.3473 12.6568ZM61.2267 7.49155C59.7744 7.49155 58.5912 8.67477 58.5912 10.127C58.5914 11.5791 59.7745 12.7615 61.2267 12.7615C62.6786 12.7613 63.861 11.579 63.8611 10.127C63.8611 8.67487 62.6787 7.49171 61.2267 7.49155ZM60.4343 9.88145C60.5702 9.44449 61.0342 9.19894 61.4712 9.3346C61.9082 9.47055 62.1538 9.93455 62.0181 10.3716C61.8821 10.8087 61.4182 11.0544 60.9811 10.9184C60.544 10.7824 60.2984 10.3185 60.4343 9.88145Z" fill="#242424"/>
</svg>
