<svg width="28" height="28" viewBox="0 0 28 28" fill="none" xmlns="http://www.w3.org/2000/svg">
<rect width="28" height="28" rx="14" fill="#242424"/>
<path d="M17.5797 10.8525C17.5055 10.8141 17.4332 10.7721 17.3631 10.7265C17.1595 10.5918 16.9728 10.4332 16.807 10.254C16.3922 9.77937 16.2373 9.29792 16.1802 8.96083H16.1825C16.1349 8.68103 16.1546 8.5 16.1576 8.5H14.2684V15.805C14.2684 15.9031 14.2684 16 14.2643 16.0958C14.2643 16.1077 14.2631 16.1187 14.2624 16.1316C14.2624 16.1368 14.2625 16.1423 14.2613 16.1478C14.2613 16.1492 14.2613 16.1506 14.2613 16.152C14.2414 16.4141 14.1574 16.6672 14.0166 16.8893C13.8759 17.1113 13.6828 17.2953 13.4542 17.4251C13.216 17.5607 12.9466 17.6317 12.6726 17.6314C11.7924 17.6314 11.079 16.9137 11.079 16.0273C11.079 15.1409 11.7924 14.4232 12.6726 14.4232C12.8392 14.423 13.0048 14.4493 13.1632 14.5009L13.1655 12.5774C12.6846 12.5152 12.196 12.5535 11.7306 12.6896C11.2652 12.8258 10.8331 13.0569 10.4615 13.3684C10.1358 13.6513 9.86209 13.9889 9.65253 14.3659C9.57279 14.5034 9.27191 15.0559 9.23547 15.9526C9.21256 16.4615 9.3654 16.9888 9.43827 17.2068V17.2113C9.4841 17.3397 9.6617 17.7776 9.95112 18.1467C10.1845 18.4429 10.4602 18.703 10.7694 18.9188V18.9142L10.774 18.9188C11.6886 19.5402 12.7026 19.4995 12.7026 19.4995C12.8781 19.4923 13.4661 19.4995 14.1339 19.183C14.8745 18.8322 15.2962 18.3094 15.2962 18.3094C15.5655 17.9971 15.7797 17.6412 15.9296 17.2569C16.1005 16.8076 16.1576 16.2686 16.1576 16.0532V12.1777C16.1805 12.1915 16.4857 12.3933 16.4857 12.3933C16.4857 12.3933 16.9255 12.6752 17.6116 12.8588C18.1038 12.9894 18.767 13.0169 18.767 13.0169V11.1415C18.5346 11.1667 18.0628 11.0933 17.5797 10.8525Z" fill="white"/>
</svg>
