<svg width="28" height="28" viewBox="0 0 28 28" fill="none" xmlns="http://www.w3.org/2000/svg">
<rect width="28" height="28" rx="14" fill="#242424"/>
<path d="M14.0374 7.5C15.6986 7.50985 17.2921 8.16081 18.4846 9.31738C19.6772 10.474 20.377 12.0469 20.4378 13.707C20.4693 14.557 20.3322 15.4055 20.0345 16.2022C19.7367 16.9986 19.2836 17.7279 18.7024 18.3486C18.1211 18.9695 17.4222 19.4699 16.6468 19.8193C15.8716 20.1686 15.0348 20.3604 14.1848 20.3848H14.0003C13.0338 20.385 12.0795 20.1683 11.2083 19.75L7.83621 20.5H7.82644C7.8194 20.5 7.81234 20.4981 7.80594 20.4951C7.79969 20.4922 7.79391 20.4885 7.78934 20.4834C7.78472 20.4781 7.78063 20.4716 7.77859 20.4648C7.77656 20.4581 7.77669 20.4503 7.77762 20.4434L8.34695 17.0342C7.8105 16.0526 7.53912 14.9485 7.55887 13.8301C7.57869 12.7116 7.88929 11.6173 8.46023 10.6553C9.03121 9.69331 9.84241 8.89594 10.8147 8.34278C11.7872 7.78961 12.8874 7.49917 14.0061 7.5H14.0374ZM13.8528 8.62012C12.9281 8.64647 12.0259 8.91269 11.2356 9.39356C10.4452 9.87452 9.79342 10.554 9.345 11.3633C8.89677 12.1725 8.66668 13.0848 8.67801 14.0098C8.68938 14.9349 8.9424 15.8407 9.41043 16.6387L9.50809 16.8047L9.08621 19.1191L11.3723 18.5781L11.5452 18.6689C12.3038 19.0615 13.1461 19.2657 14.0003 19.2647H14.1526L14.1585 19.2666C15.5541 19.223 16.8763 18.6324 17.8411 17.623C18.8059 16.6135 19.3364 15.2654 19.3167 13.8691C19.2969 12.473 18.7294 11.14 17.7366 10.1582C16.7437 9.17635 15.4045 8.62429 14.0081 8.62012H13.8528ZM11.7737 10.8301C11.8814 10.8333 11.9893 10.8372 12.0833 10.8438C12.1976 10.8522 12.329 10.861 12.4387 11.1387C12.574 11.4634 12.8621 12.2731 12.9007 12.3555C12.9248 12.3986 12.938 12.4476 12.9387 12.4971C12.9395 12.5464 12.9273 12.5949 12.9046 12.6387C12.8605 12.7334 12.8033 12.8217 12.7346 12.9004C12.6512 12.9924 12.5646 13.0987 12.4837 13.1758C12.4026 13.2529 12.3138 13.3383 12.4026 13.5029C12.6325 13.9271 12.9243 14.3147 13.2679 14.6533C13.6356 15.0134 14.0676 15.3018 14.5413 15.5029C14.596 15.5315 14.6563 15.5481 14.718 15.5508C14.7515 15.5502 14.7844 15.5424 14.8147 15.5283C14.8451 15.5141 14.8728 15.4931 14.8948 15.4678C14.9959 15.3653 15.2956 15.0121 15.4261 14.8496C15.4464 14.8165 15.4747 14.7885 15.5081 14.7686C15.5416 14.7486 15.5795 14.7374 15.6184 14.7354C15.6783 14.7398 15.7368 14.7549 15.7913 14.7803C15.9383 14.8391 16.7207 15.2572 16.8802 15.3408C17.0396 15.4245 17.1453 15.4718 17.1839 15.5371C17.2223 15.6028 17.2129 15.9293 17.0667 16.3027C16.9203 16.6765 16.2488 17.0198 15.9514 17.0381C15.8633 17.0433 15.7789 17.0557 15.6673 17.0557C15.3961 17.0556 14.9775 16.9851 14.0237 16.5742C12.4008 15.877 11.4159 14.1573 11.3382 14.0469C11.2602 13.9361 10.704 13.1491 10.7288 12.3535C10.7536 11.5577 11.1836 11.179 11.3372 11.0215C11.3915 10.9633 11.4569 10.9162 11.5296 10.8838C11.5658 10.8677 11.6034 10.8553 11.6419 10.8467L11.76 10.8301H11.7737Z" fill="white"/>
</svg>
